# vtk DataFile Version 3.0
d-2__ created by libgimli-v1.5.0-1-g5991b6ac
ASCII
DATASET UNSTRUCTURED_GRID
POINTS 1001 double
157.8203572394	3144.8121809109	0
158.25	3145.39	0
157.5	3145.52	0
109.11223259896	3160.9048366297	0
111.20820287165	3160.8859986026	0
111	3162.83	0
109.5	3163.555	0
211.61907323104	3138.6641193161	0
211.00662868644	3138.9518723695	0
210.72466996258	3138.3237533125	0
108	3164.28	0
106.50557223659	3163.6675626642	0
107.40367144488	3162.4899260997	0
150.97108943613	3146.2856329253	0
152.21348488239	3145.8288453016	0
151.73203785026	3146.5451053422	0
106.5	3164.95	0
210.75	3139.44	0
210.44283377456	3138.965762138	0
163.18194870758	3142.5591929581	0
162.06735293824	3142.615063011	0
162.03530874983	3141.5571208727	0
102	3166.88	0
100.14781651879	3165.0861401761	0
102.15293534208	3165.0957549008	0
116.5505769985	3157.3420947431	0
118.5	3158.965	0
117	3159.7	0
115.5	3160.49	0
115.14008161274	3158.8042023313	0
208.5	3139.57	0
208.87877430885	3138.8752692286	0
209.25	3139.535	0
199.87883479905	3139.7915579763	0
200.25	3140.34	0
199.5	3140.4	0
226.5	3137.32	0
226.8988405888	3136.706897401	0
227.25	3137.21	0
112.5	3162.055	0
208.01178868587	3138.6185725396	0
207.75	3139.64	0
207.24865983402	3139.0584232869	0
112.6419618178	3160.1527938734	0
114	3161.28	0
114.1068097516	3159.8228238826	0
232.5	3136.18	0
231.75	3136.3	0
232.03996497526	3135.7425405935	0
171	3143.15	0
171.55502475879	3142.2619350693	0
171.75	3143.045	0
120	3158.23	0
118.52580252714	3156.9881789387	0
120.13523520324	3155.4594889036	0
145.20107666044	3146.9061472414	0
146.35588642187	3146.0830063752	0
146.38057340779	3147.571682771	0
217.81892342612	3137.9969093726	0
217.7228031655	3136.8924595587	0
218.40956834414	3137.8443649732	0
86.455429118225	3171.4996046092	0
88.5	3172.54	0
87	3173.17	0
105.37254937956	3164.1307074301	0
105.23584889847	3162.4778133005	0
233.75407037739	3135.0491611683	0
232.54551606925	3135.1022329962	0
233.30417609624	3133.7755844841	0
172.18355049843	3142.4849385437	0
172.5	3142.94	0
82.701770782382	3172.8404256696	0
82.5	3175.05	0
81.214238474004	3173.9475751889	0
230.09751973722	3134.7216971603	0
230.51545330086	3135.8241687678	0
229.86471969075	3135.9511725789	0
88.179601550866	3169.9292762806	0
85.5	3173.795	0
85.545011186492	3172.5938944806	0
227.45604932962	3136.6478781281	0
221.25	3138.03	0
220.78220908147	3137.5097389216	0
221.43678836824	3137.5251150322	0
90.56835202066	3169.8260055357	0
90	3171.91	0
200.5004519781	3139.8347337842	0
96	3169.39	0
94.343743297335	3167.7855682673	0
96.368030758026	3168.0000823761	0
99	3168.14	0
98.493242074133	3166.5238982537	0
100.5	3167.51	0
196.83485062369	3139.8717960124	0
197.25	3140.485	0
196.5	3140.51	0
228	3137.1	0
228.00792261339	3136.2382871341	0
91.5	3171.28	0
225.15104961562	3135.525945672	0
225.27187425101	3136.7012364767	0
224.28610749991	3136.5975905565	0
94.5	3170.02	0
93	3170.65	0
93.16814702992	3169.3434876609	0
221.14307506404	3136.9218261939	0
236.4891858133	3134.0042602034	0
237	3134.49	0
236.25	3134.815	0
92.038563582985	3169.8948615602	0
226.43397106285	3134.9310117687	0
227.12037339138	3135.984165101	0
226.16375723655	3136.3723517392	0
204.32355074831	3139.0266878054	0
204	3139.91	0
203.49442580325	3139.3542080184	0
149.94706138592	3146.8558428035	0
150	3147.67	0
149.39689771989	3147.3257222575	0
147	3148.54	0
146.25	3148.76	0
172.37969194399	3141.7850763217	0
172.74424621182	3142.3981116334	0
148.5	3148.11	0
148.06349838419	3147.3001577371	0
148.8304934246	3147.4722980793	0
167.03298546761	3142.5735917745	0
167.40839342508	3143.2485572186	0
166.80966653808	3143.3044548116	0
147.27086378891	3147.7274206003	0
147.75	3148.325	0
191.76094828444	3139.5218977369	0
191.25	3140.65	0
190.88672546178	3139.8734543997	0
156.96908181685	3144.6335652416	0
157.87671209236	3143.8981342214	0
162.41674142809	3143.2448729164	0
162.21202376098	3143.971194317	0
161.6764713035	3143.3218751085	0
184.5	3141.26	0
184.79452262076	3140.1788364784	0
185.25	3141.165	0
195.38993786505	3139.811475252	0
195.15414308452	3138.9091484047	0
195.83902726721	3139.2147345542	0
148.96327322845	3144.0888967539	0
151.03659372127	3144.4751640779	0
149.63095474247	3145.7064260046	0
153.40065265841	3145.6777323167	0
154.21017379567	3145.1196812863	0
154.10714417297	3145.8000353081	0
151.5	3147.18	0
159.23071650899	3144.451626562	0
158.70973771865	3143.9491448258	0
159.32503017536	3143.597078517	0
211.5	3139.38	0
220.5	3138.08	0
161.47298228937	3144.1370143366	0
160.86318630503	3143.571505976	0
195.75	3140.565	0
196.15518476282	3139.8283218962	0
159	3145.26	0
158.48810670565	3144.6251775505	0
150.75	3147.425	0
213.79752748819	3138.3251253076	0
213.75	3139.16	0
213.29950220709	3138.7958725692	0
149.25	3147.89	0
148.96164779942	3146.743150405	0
166.41035201119	3141.3827506084	0
167.48346840792	3140.0988643061	0
167.75452268355	3141.7024260135	0
129	3154.09	0
127.5	3154.725	0
127.89834148256	3153.0111581338	0
169.29738478685	3135.862656934	0
171.52213538593	3138.8673007472	0
169.06219202822	3139.0400064926	0
187.5	3140.9	0
186.75	3140.985	0
186.95252436584	3140.2661553904	0
221.99941738135	3137.1954540799	0
222	3137.98	0
168.75	3143.56	0
167.96509662103	3142.8609629202	0
168.87406133161	3142.3947185157	0
121.5	3157.48	0
124.5	3156.045	0
124.06595087281	3154.2625961548	0
126	3155.36	0
123.13321963584	3155.4470790497	0
123	3156.73	0
212.64987770107	3138.4405185934	0
125.90747681151	3152.6620631077	0
168	3143.69	0
167.25	3143.815	0
143.8427720339	3146.6321263321	0
143.50369173831	3147.7066380318	0
142.21665370424	3147.0733859274	0
187.65514557901	3140.2189097892	0
188.25	3140.84	0
160.08424699279	3144.1621332215	0
160.06370130576	3143.074046291	0
156.75	3145.675	0
155.8846795788	3144.2333334483	0
154.68116922984	3144.1299867929	0
155.44027680208	3143.2101813025	0
228.95994357458	3135.7062355211	0
228.75	3136.98	0
129.15460858171	3152.5628947219	0
183.75	3141.305	0
183	3141.35	0
183.29750067257	3140.1831255711	0
135.37982709392	3150.3246888373	0
135	3151.93	0
134.08782204079	3151.0172790728	0
145.44078888848	3148.0758442049	0
145.5	3148.98	0
144.84690598995	3148.5017089391	0
132.6329890916	3150.9601765757	0
133.92957699657	3149.3835510931	0
147.96910438525	3145.8282452373	0
224.25	3137.685	0
223.75336221061	3137.1802408987	0
194.45628800916	3139.7465661161	0
194.25	3140.615	0
193.79557775651	3140.1338559054	0
237.12959017733	3133.5638060704	0
236.30629726315	3133.0999625103	0
162	3144.75	0
161.25	3144.865	0
17.383681552461	3201.6964993874	0
19.462201570308	3201.4946878066	0
19.5	3203.35	0
45.083177766196	3189.2686032279	0
45	3191.1	0
43.389989950625	3189.6899459881	0
176.47211173219	3140.937406883	0
176.53921107968	3141.6516574571	0
175.68823889177	3141.4871616739	0
206.25	3139.775	0
205.61150136868	3138.73458666	0
206.59908678436	3139.10102219	0
15.882502174834	3203.2091539514	0
18	3204.07	0
16.5	3204.77	0
200.66713979592	3137.3011517273	0
200.9546308152	3138.6062598771	0
199.87035040284	3138.4339824686	0
15.046103128587	3204.2609286964	0
15	3205.47	0
22.5	3201.93	0
22.86841786743	3199.9590977633	0
24	3201.23	0
200.30829170806	3139.2341399242	0
178.15853454662	3140.7798436837	0
178.57252187367	3139.4840520633	0
179.25437346528	3140.8798193929	0
152.25	3146.895	0
33	3196.75	0
33.110077371316	3195.1149099555	0
34.5	3196.045	0
36	3195.34	0
34.355804049502	3194.4159552925	0
174.43526830841	3141.0285384744	0
174.93474553714	3141.9260916339	0
174.304693171	3142.0529060188	0
30	3198.16	0
28.5	3198.865	0
28.465099687446	3197.2304377115	0
186	3141.07	0
185.61012310426	3140.5625682895	0
186.24335320092	3140.4354848626	0
29.993983407134	3196.7226090982	0
31.5	3197.455	0
190.5	3140.68	0
190.05754740458	3139.6544254007	0
195.87603451055	3138.5240224034	0
196.63412213472	3139.013698999	0
27.157496988037	3198.0624094374	0
234.34406750127	3132.6162839747	0
235.36957526964	3133.0963230114	0
234.68148742145	3134.1716418615	0
158.48897082966	3142.0227284108	0
158.57983620913	3143.1836097077	0
157.80700264925	3142.8714788378	0
29.552027500923	3193.1601978619	0
28.795533412233	3195.395430984	0
27.224433075076	3193.7098825669	0
137.48210961732	3148.4904106983	0
137.46954855875	3146.8298018443	0
138.76976425249	3147.9379460135	0
156.72090064443	3143.2274347075	0
171.50104117324	3141.0314414558	0
86.492341936948	3158.0350184977	0
85.942611527819	3153.9981467312	0
90.9565736684	3157.8515268225	0
144.47493136906	3147.7315146491	0
144.08347960392	3148.5178586227	0
52.550656436643	3182.5392056713	0
51.902916590879	3179.3398647836	0
54.494420773057	3180.437784251	0
12.159647813162	3203.212015541	0
14.180227980374	3201.2508210319	0
14.186170988231	3203.3029998741	0
211.58637037668	3137.591573506	0
209.96088084984	3137.1599736022	0
35.684447494745	3192.5839539652	0
37.5	3194.63	0
144.75	3149.195	0
144	3149.41	0
26.318744882231	3196.1817302517	0
13.664069511601	3204.6057637959	0
5.9109229222368	3208.1481521356	0
6	3209.94	0
4.4883575123647	3209.1304822182	0
7.5	3209.225	0
159.77518399082	3141.9611568564	0
159.12945439689	3140.8574694492	0
7.1768707925032	3204.5323484115	0
5.4790821716097	3206.1367087714	0
4.8353865020668	3203.9027659003	0
217.20508636936	3138.0128567448	0
216.22416590705	3137.7117734528	0
228.7353183141	3134.1772663266	0
84.419214908621	3173.0265221335	0
84.34108273499	3171.4993864197	0
64.5	3182.655	0
64.591175246293	3181.5649060283	0
66	3182.01	0
192.68996780931	3139.8710949119	0
192.85580121581	3138.7704433021	0
189	3140.78	0
188.38840917768	3139.8015617238	0
189.27310909493	3140.0010525186	0
159.75	3145.12	0
65.49652181014	3180.5551997034	0
193.52333696174	3139.5461494994	0
67.082493362312	3179.1513532104	0
67.5	3181.37	0
58.426524302012	3183.0452474606	0
60	3184.58	0
58.5	3185.22	0
175.7312989071	3140.1298032892	0
70.499487691407	3177.804355355	0
70.5	3180.09	0
69.071242815866	3178.9896298428	0
178.64455688462	3141.3921399295	0
178.5	3141.97	0
178.06884951802	3141.5072166455	0
75	3178.18	0
73.926778123197	3176.6961025314	0
75.540008735523	3176.8623568468	0
78	3176.94	0
77.553958108715	3175.3920205782	0
79.5	3176.31	0
164.63548255213	3141.4049253903	0
163.11745230017	3140.960972267	0
165.86865610647	3142.9461535548	0
166.5	3143.94	0
165.75	3144.085	0
69	3180.73	0
164.55560866548	3143.257348739	0
165.29288145439	3143.6295771156	0
73.5	3178.815	0
72	3179.45	0
72.34485681922	3177.7109350762	0
187.17204186712	3139.308798507	0
139.91477472126	3149.0465977709	0
141.48034105814	3148.6718566098	0
141	3150.14	0
76.5	3177.56	0
76.643830831277	3176.4393631281	0
182.47209671607	3140.7800339191	0
237.9024352117	3133.2834026147	0
237.33556781103	3132.34601637	0
43.5	3191.805	0
64.323506781842	3178.69032646	0
179.97148841469	3140.0280951078	0
180.94311324807	3139.3552151212	0
181.02499275314	3140.6315439572	0
37.815414127112	3192.9926194394	0
39	3193.92	0
39.048635460468	3192.5037045894	0
231.36518548608	3135.3869895505	0
231	3136.42	0
46.612956735201	3187.9459053359	0
46.5	3190.405	0
147.20500901165	3146.9019669659	0
50.942632594826	3186.4206092348	0
52.70130958922	3186.2198459412	0
52.5	3187.785	0
216	3138.87	0
215.37216393192	3138.2444599834	0
57.087720815706	3184.3642060768	0
57	3185.86	0
51	3188.43	0
209.73536352257	3138.6235517073	0
208.90203143664	3138.0412511088	0
63.488973077947	3180.6534145555	0
192.75	3140.615	0
193.25138528913	3140.1548297574	0
193.5	3140.61	0
48.451497705365	3188.0734745675	0
49.675950173305	3187.6077723452	0
49.5	3189.07	0
48	3189.71	0
54	3187.14	0
210	3139.5	0
189.16031646121	3139.0447562849	0
61.834231420374	3181.9126996079	0
61.5	3183.94	0
60.322265252419	3182.9690788566	0
79.217091935862	3173.9425973999	0
81	3175.68	0
169.75628733449	3142.5832589285	0
169.62830318216	3141.7168557358	0
170.54425373298	3142.0884433902	0
153.12037617299	3144.3405792064	0
227.75331227581	3135.0109106148	0
231.61008374027	3133.5895234879	0
213	3139.26	0
212.25	3139.32	0
219.75	3138.245	0
220.10663915328	3137.6197161207	0
205.5	3139.84	0
214.5	3139.06	0
203.05136353811	3138.4192757397	0
204.33757355048	3137.5629872218	0
207	3139.71	0
206.89267403984	3138.2391178692	0
216.75	3138.78	0
160.5	3144.98	0
160.83444416928	3144.3430939405	0
177.29820996869	3141.3210063892	0
177.75	3142.085	0
177	3142.2	0
225.75	3137.445	0
217.5	3138.69	0
214.71804706311	3138.3779551944	0
215.25	3138.965	0
221.6746098499	3136.2347066547	0
201.9996692924	3139.1781566932	0
202.5	3140.12	0
201.75	3140.2	0
201	3140.28	0
201.08131811393	3139.5498812881	0
142.95893546322	3148.531100148	0
197.64346346052	3139.5300914114	0
198	3140.46	0
212.99249722127	3137.1549731844	0
214.66289319857	3137.3040184777	0
202.85651875965	3139.4135222677	0
142.5	3149.775	0
204.75	3139.875	0
205.04570294867	3139.3682114497	0
159.25685232071	3142.7660443277	0
203.25	3140.015	0
219.24657869804	3137.3794121589	0
219	3138.41	0
234.75	3135.465	0
234	3135.79	0
235.5	3135.14	0
235.76445222846	3134.0541885071	0
233.25	3135.985	0
201.83941532415	3137.9876346433	0
234.06031566182	3130.9980376051	0
234.7009445646	3128.5846973535	0
235.75171884621	3131.5437841833	0
154.66897899353	3145.6468852952	0
215.83368378835	3135.897420762	0
218.25	3138.55	0
237.75	3134.165	0
230.25	3136.64	0
223.5	3137.8	0
222.97525481898	3136.6401492329	0
222.75	3137.89	0
175.5	3142.45	0
190.85943062532	3138.8592818308	0
229.5	3136.86	0
198.75	3140.43	0
198.45747437779	3139.8126898156	0
199.15082600544	3139.754283221	0
220.24478184503	3136.8953465158	0
225	3137.57	0
222.22250586126	3135.3599589867	0
169.5	3143.43	0
165	3144.23	0
179.25	3141.84	0
220.9665433883	3135.1367359077	0
163.5	3144.48	0
162.75	3144.615	0
162.95672028727	3143.758570895	0
173.25	3142.86	0
170.25	3143.29	0
173.42288893085	3141.9279128247	0
174	3142.78	0
174.75	3142.615	0
153	3146.61	0
153.75	3146.395	0
155.26886703475	3145.1498751593	0
211.5704682289	3135.8390293623	0
164.25	3144.355	0
163.68694582197	3143.6818960768	0
155.25	3146.005	0
156	3145.83	0
163.04986936709	3135.7651318151	0
163.59322122533	3139.1381993586	0
161.35005537901	3138.5383353741	0
160.67273418056	3140.6566941722	0
159.17723864035	3139.1716619313	0
189.75	3140.73	0
195	3140.62	0
192	3140.62	0
191.77174735594	3138.0041175196	0
180	3141.71	0
180.19977266856	3140.9726863078	0
180.75	3141.63	0
189.94716690132	3138.398181077	0
176.25	3142.325	0
184.08589514252	3140.7306144754	0
181.84309191783	3140.8889605249	0
182.25	3141.45	0
181.5	3141.55	0
172.89121974495	3140.6175424852	0
181.96527916059	3140.0482220041	0
186.37722455804	3139.7826319555	0
182.20520717356	3138.4925914437	0
195.27666396797	3137.5593366077	0
196.50256538977	3137.9430453955	0
161.02264181243	3142.393756053	0
157.48978990027	3140.4994232695	0
144.84030726352	3145.2960709666	0
146.65613787499	3143.9880250222	0
219.46643671198	3135.7713617835	0
205.96797324772	3137.0012614151	0
207.92972655498	3136.9437077407	0
199.58777080105	3139.2175725313	0
227.23532857634	3133.0352484585	0
168.81822514093	3140.9210808954	0
184.08600553316	3138.6503247684	0
191.12741923828	3136.0893829084	0
193.28465490947	3137.0719682863	0
185.75639586741	3139.9788094713	0
185.74478359906	3138.9581566528	0
194.09275159018	3138.6013046306	0
197.60383965186	3138.1957174917	0
198.75347038252	3138.9002944769	0
162.15403248994	3140.1690230052	0
174.12485693239	3139.1005772992	0
157.2673551686	3142.0595789744	0
220.70398355974	3136.1879054097	0
232.5790599242	3130.1475249421	0
231.43008799031	3131.6086677667	0
230.41376639822	3129.7910263024	0
170.17233971126	3140.605568528	0
177.13124874437	3140.1269266303	0
156.17620232631	3145.1022255267	0
197.1265470911	3136.4222142385	0
198.97808656726	3137.3731413706	0
232.89233008866	3132.1202646164	0
190.70392093052	3137.7017398258	0
204.55228435768	3135.7717286429	0
206.49497727513	3134.7785358445	0
225.14627935403	3133.6733234514	0
217.55024036204	3134.5443261395	0
165.72766429912	3139.5935317745	0
150.21894052738	3142.6089929724	0
152.14924009327	3142.4950207763	0
179.84383672126	3138.8999476319	0
223.57779628701	3134.8959564642	0
221.89731993979	3133.9074860013	0
229.61757205597	3132.4152165388	0
188.17457803005	3138.4524113288	0
189.08410121451	3137.9820513784	0
132	3153.02	0
130.44168942616	3151.1428276376	0
130.5	3153.555	0
134.20424367998	3144.006704846	0
135.32086522762	3140.2053489517	0
137.9128377698	3143.9004301899	0
138.43107552847	3149.4949012712	0
139.5	3150.58	0
138	3151.02	0
153.67041751321	3140.6994913296	0
154.14412029779	3142.7506884836	0
186.86883065836	3137.7400430164	0
189.77335960711	3137.1579792001	0
188.32181524716	3136.8769319014	0
189.40390196173	3135.9179598565	0
155.75892221175	3141.722051675	0
155.53243506429	3139.6766973906	0
133.5	3152.475	0
191.50176441364	3133.5170687692	0
189.50891085464	3134.3013169972	0
219.79108307951	3133.3893039651	0
186.63625580212	3135.7622675534	0
142.86813952171	3145.0522262844	0
141.46695080516	3142.7808539409	0
144.26121094049	3143.0712464046	0
176.57740189483	3138.1518926344	0
136.93666455618	3149.8493648345	0
136.5	3151.475	0
140.60825326911	3145.4451311735	0
213.68573949226	3135.4348753085	0
209.2805391584	3134.7885296214	0
215.127602576	3133.5140713659	0
238.79802574788	3132.510788281	0
238.5	3133.84	0
194.89049495277	3135.4291523756	0
183.32732007286	3137.0145431542	0
185.11944727163	3137.128786531	0
179.09190062666	3137.5904736987	0
180.64711672729	3138.0982012233	0
187.91268295327	3128.7570261606	0
187.24352615912	3122.4432634244	0
192.29305723517	3126.2273235482	0
135.82833026142	3148.282004738	0
135.83289387826	3146.0183083249	0
173.63391280476	3135.8818661882	0
181.14719034883	3136.1962860465	0
202.53097492626	3136.4421072167	0
223.30873635752	3132.6045099607	0
167.14068374483	3137.9607838082	0
131.84273815218	3148.7105456794	0
133.80870975753	3146.9995671312	0
211.90006265704	3132.9192742698	0
238.11398059289	3130.0908222181	0
240.6727285372	3131.6775497878	0
240.25186329375	3133.84	0
225.13903600253	3131.0646189273	0
199.84722465531	3134.9861619834	0
192.94545406995	3135.0270203483	0
203.4195204692	3133.0772629963	0
106.03999392956	3160.0376416239	0
154.5	3146.18	0
25.5	3200.4	0
25.492755591832	3198.471260809	0
27	3199.57	0
24.137232170999	3199.4473264589	0
12	3206.97	0
10.630667927553	3206.1203913314	0
12.1025855711	3205.271946464	0
38.36241365081	3189.1768030666	0
40.076893235172	3191.0674478256	0
37.876982860178	3191.3230836252	0
117.92977195661	3149.7067829124	0
115.97230607856	3152.1987759713	0
114.81355593954	3148.9686698851	0
129.04735446543	3148.1594762636	0
131.25330828448	3145.5521677655	0
188.2190696925	3135.1791372103	0
127.94361205285	3151.0105736674	0
125.25294990894	3148.5019727652	0
217.31376264851	3131.8221733303	0
184.04145873859	3134.6648113651	0
187.1471526392	3133.059059221	0
165.13794683238	3137.6144835522	0
177.77064973398	3134.8247742947	0
146.04832348968	3141.6079785554	0
143.79163327153	3139.6769738689	0
196.76002574226	3133.4455649359	0
221.47536025234	3132.083965907	0
227.74467064886	3130.0107323372	0
189.59468752017	3132.045696911	0
191.7862075883	3130.5934586039	0
207.79543034119	3131.0912420705	0
105	3165.62	0
103.5	3166.25	0
97.5	3168.765	0
97.559049910998	3167.5824566	0
114.81843417679	3154.9070340342	0
117.45296263414	3154.9436044083	0
122.13965757332	3154.3133899366	0
84	3174.42	0
101.49028184895	3163.3285536653	0
103.60917008366	3163.9314843085	0
86.820068035569	3166.9168404785	0
85.146633836839	3169.3079048347	0
89.726275397353	3167.5978825199	0
91.950142412073	3168.3960025714	0
121.97891059793	3155.885859328	0
120.93917818723	3148.2727657608	0
122.75013272055	3151.7460025651	0
32.50033803414	3192.986298691	0
40.913865349556	3188.139145442	0
43.991475622573	3187.2418022563	0
13.5	3206.22	0
4.5	3210.795	0
22.81720671	3197.1960180412	0
20.867759791163	3200.0313913501	0
31.2063144046	3195.3711210337	0
10.5	3207.74	0
71.771333063896	3175.8243986946	0
73.645010988519	3174.1118759664	0
68.255748890668	3177.2204195877	0
69.473776959685	3175.4840028196	0
80.634024424258	3172.2464150475	0
63.481324009516	3182.0084053856	0
63	3183.3	0
55.5	3186.5	0
55.857579375416	3184.9017087566	0
55.702763058328	3182.8728682098	0
48.539442413386	3186.086403305	0
41.965360674035	3190.6380268659	0
42	3192.51	0
40.5	3193.215	0
195.33181475046	3129.9779921229	0
199.39805381099	3130.814631168	0
219.80117905929	3130.491555376	0
222.51487893803	3130.0598003861	0
97.29957740849	3164.3542241257	0
96.422984407175	3166.49679506	0
118.74314749276	3152.7528964373	0
76.308591133104	3173.3086497427	0
75.60920133205	3175.4615907661	0
94.453236180966	3164.7569711066	0
27.202306261806	3190.6054633821	0
30.439886177899	3190.9073684251	0
36.324816306444	3189.625284065	0
21	3202.63	0
24.281796308899	3193.2456981381	0
18.541138721356	3199.834394657	0
9	3208.51	0
7.6542606114394	3206.9546962629	0
54.034566545089	3184.9726048375	0
59.870647293084	3181.4274960825	0
61.216334518297	3179.2751098643	0
52.076769141126	3184.8305562052	0
99.0363627113	3161.9251722255	0
114.43209120226	3157.0827745641	0
78.222577044685	3170.8035328157	0
95.16911417586	3161.3797239415	0
148.3201716612	3141.9571073063	0
18.874566122521	3197.2579499426	0
16.117801404843	3198.7828418804	0
73.471425076245	3170.2750054527	0
102.46024374926	3160.6023663607	0
91.8403647998	3165.959887868	0
81.750856298383	3169.7606643861	0
183.93832202282	3130.7710282741	0
-7.007453175013	3205.46	0
-3.0134640884683	3206.7749070684	0
-7.007453175013	3209.46	0
50.273649690588	3184.1428733795	0
45.91732711212	3184.9694221947	0
9.3838346820716	3206.9241951933	0
203.21242987072	3127.629027465	0
217.11838665091	3128.530623044	0
220.46268037188	3127.113108263	0
83.250056726444	3166.3431370712	0
70.657349995931	3173.2493499035	0
33.220778171998	3189.3623994864	0
85.598224954617	3163.7434464268	0
88.943595023707	3164.6563630721	0
10.668696949779	3204.5648253814	0
193.88249969699	3133.0049925269	0
127.59558569491	3144.013464519	0
131.16362790993	3141.3224477276	0
120.22038338604	3151.1143079115	0
113.25049071681	3158.3857058251	0
231.90542586085	3127.8256251285	0
215.99177733211	3119.5547709369	0
217.00707301924	3124.4883780752	0
213.13255758919	3122.875600407	0
110.77863915044	3158.4810682575	0
120.7953183052	3153.0775624486	0
139.00934715149	3146.3192992342	0
11.017247507867	3200.7344957809	0
8.4762016169681	3200.6131736626	0
9.4533300610766	3198.4882952606	0
-7.007453175013	3197.46	0
-7.007453175013	3189.46	0
-1.7927928274119	3192.1007541884	0
57.591116642413	3180.0992807325	0
54.833219217185	3177.6133942919	0
153.72781170139	3137.4777802919	0
159.41405631566	3136.4369706141	0
42.182321895606	3183.5621859706	0
65.892728670578	3176.6939911987	0
62.742361543336	3176.0699148965	0
140.31913781893	3147.4330737312	0
112.39929186751	3155.9644500785	0
67.435472049213	3175.3755836614	0
36.651972834243	3185.7397964128	0
150.7082675698	3140.1119557332	0
139.57015917955	3139.4604286671	0
237.74722890011	3125.693684866	0
241.75811336174	3128.3027910552	0
232.64334747377	3123.8560456899	0
243.09165659207	3131.498571412	0
242.00372658751	3133.84	0
174.90164609591	3131.8889833197	0
229.12757058724	3126.7820764781	0
22.471552528962	3188.8061047469	0
65.4305130411	3173.9058131738	0
68.099595193256	3173.6251538923	0
156.97906079895	3138.0808598035	0
9.1383208502912	3205.3350356358	0
180.90099304928	3132.8156455277	0
91.573426798808	3162.6252672406	0
29.786620457875	3188.4480934884	0
67.350667929004	3170.3420781416	0
48.093186489668	3183.6234409171	0
156.51955502873	3135.2472592029	0
159.34667510063	3132.0073937958	0
108.99390227082	3155.0220814114	0
107.81669206962	3158.0302139025	0
104.14891658772	3155.7005393919	0
224.80019346115	3127.0463854143	0
12.538614534806	3198.0127961223	0
15.218555558959	3194.7799090215	0
9.3231555773634	3202.9822150104	0
19.724873787166	3193.0762720842	0
3	3211.65	0
1.5	3212.555	0
1.6318870193284	3210.1258361599	0
9.3123339384293	3194.2954331867	0
241.62797094588	3123.5026271857	0
112.11098675548	3151.8912837838	0
0	3213.46	0
-1.4096691018423	3210.4982640126	0
97.582939340616	3156.8214778271	0
0.5247486533735	3207.6840975432	0
4.3431540605123	3207.5367121602	0
3.2992785052977	3210.014648621	0
2.9624783677595	3205.8952528236	0
2.5854917799189	3203.249031144	0
2.8749138265787	3208.3890918579	0
-3.5037265875065	3213.46	0
-7.007453175013	3213.46	0
0.10617752384995	3204.501800717	0
4.1709699590053	3201.6504674107	0
116.94046400302	3144.9190162023	0
214.42953483691	3130.4771798454	0
166.31178232454	3131.1348343727	0
171.2399280668	3132.6162272679	0
46.312237144128	3181.5906564952	0
49.593268010879	3181.5380177751	0
245.50745317501	3133.84	0
91.966044389146	3140.4866117189	0
103.75138698719	3128.8891795233	0
104.17256465597	3142.2446291623	0
99.396034376127	3149.3660047232	0
91.778353832152	3151.0060458301	0
106.66431581386	3150.0490891051	0
31.314237476631	3185.3213337482	0
58.675835327825	3176.3577426127	0
245.50745317501	3129.84	0
245.50745317501	3125.84	0
60.872450530286	3171.7567239761	0
28.349292542992	3181.0228772644	0
33.31585179919	3181.4990614004	0
48.529693742137	3178.1726832024	0
51.622299951685	3176.2302536689	0
87.980692381618	3161.2082493036	0
77.825876731473	3165.4022249334	0
230.1784854997	3116.0789839621	0
227.0665821604	3122.2548284073	0
6.6518895739173	3202.0710012883	0
0.86764605397264	3200.3840561946	0
-1.7514253454928	3196.9562657692	0
2.8414479322105	3195.0463719502	0
221.34933564427	3122.1134256019	0
142.10246256709	3134.9813793257	0
136.91788358564	3135.2139030359	0
213.66571276	3126.7984977524	0
211.33844167658	3129.2865573757	0
197.69323009377	3125.7410864999	0
84.233972855551	3160.3915527877	0
132.4289349782	3137.2287565094	0
237.57945588077	3119.8553796349	0
5.9562459347964	3198.894532394	0
14.800272896832	3187.3667631248	0
22.16721864736	3182.6670824457	0
-3.6392888326025	3199.8575727806	0
166.18691438862	3135.6619055244	0
119.11738376697	3139.0564172147	0
122.68392526344	3143.6095398508	0
147.38131778527	3139.358020913	0
149.57545643674	3136.3211949735	0
153.11144979608	3132.3907996541	0
150.10110351089	3126.0581710794	0
155.86869761409	3127.6648241717	0
37.950060634557	3179.5350277818	0
43.771454185831	3178.0315216782	0
26.850662106914	3186.1109551507	0
202.07229389038	3119.8980982801	0
70.120492622863	3164.870748415	0
24.264921335581	3174.855695937	0
16.561260230237	3178.2777052073	0
82.195852517696	3163.057900383	0
229.71649838418	3105.3158489498	0
237.71377012899	3112.1820059424	0
111.12530522167	3146.1228513532	0
126.32784750964	3136.8954448793	0
180.34512820826	3129.1424211055	0
178.10389246601	3131.3871928556	0
32.436808012698	3176.0496187903	0
54.771687085707	3173.6308389492	0
208.78736704111	3125.1425505345	0
-3.2835348148762	3203.0681829669	0
73.363592950276	3158.8575916765	0
83.049750534318	3156.9006557791	0
79.905283387177	3159.5167855026	0
209.99696381474	3118.4143788447	0
-7.007453175013	3201.46	0
65.954198360569	3159.5178824148	0
78.552476247621	3152.637475812	0
67.351871097132	3151.6638917805	0
214.57160564843	3112.7637121076	0
224.11568421172	3117.71406763	0
4.5016381653219	3187.7395918272	0
62.542537058094	3165.1106155547	0
84.723727503938	3147.6279908815	0
245.50745317501	3117.84	0
48.126417768236	3172.7437016439	0
161.15409906542	3125.6298652107	0
146.73803072062	3132.1720534507	0
145.87427651785	3136.4842806375	0
117.61084759902	3131.1902581781	0
-2.2501269688891	3186.1119483221	0
219.65669777173	3116.7150441333	0
54.472591724836	3167.317039949	0
176.58665106484	3128.3020531143	0
172.02920612149	3128.4478840224	0
193.56043574985	3119.8786054115	0
112.10208422975	3138.7107865408	0
183.20803116853	3126.2420301818	0
39.612809007118	3172.7965835612	0
8.6150781262922	3179.5808875216	0
31.244992751258	3166.9396632571	0
195.99011935567	3112.2105689704	0
245.50745317501	3101.84	0
228.32060902656	3090.1619127446	0
245.50745317501	3070.14	0
179.13804333756	3125.5901030714	0
56.250123640223	3157.315915071	0
222.10562772881	3111.4624539171	0
132.58573352165	3132.5001064614	0
0.091946701768952	3179.8633023972	0
3.7907000670617	3171.0016277375	0
12.062897702772	3173.4707087721	0
54.521990612936	3141.9227713304	0
75.115382393106	3140.3037603548	0
44.169405041633	3163.7288957689	0
205.0484816975	3110.2866057691	0
34.895717379788	3156.7665161446	0
44.556265813183	3152.4925518956	0
214.26177909496	3100.2139904351	0
180.53680502318	3120.8623501259	0
185.73743509068	3112.8059439015	0
174.89126023082	3123.5373383439	0
168.14394642829	3123.4602837648	0
139.81645419202	3126.921563838	0
-7.007453175013	3181.46	0
6.0784429940221	3158.8080229733	0
13.821609346733	3166.697944358	0
-7.007453175013	3165.46	0
-7.007453175013	3173.46	0
-7.007453175013	3149.46	0
17.662734059986	3172.1134764504	0
21.728108132983	3167.6034389087	0
161.59109190905	3117.4615222003	0
176.55176426288	3101.4077974329	0
172.82774665048	3114.7230856396	0
162.25636116744	3103.7259622254	0
127.65425276577	3126.3157654359	0
155.64368642963	3122.3597570471	0
193.27190336468	3098.2461827836	0
116.79591651982	3117.4395327567	0
133.00243555611	3113.1718287322	0
84.707778486034	3124.2991427516	0
149.53046682492	3115.1047168061	0
144.35507177123	3096.2499053537	0
119.92545060242	3097.1725065032	0
41.634721989999	3124.8389760707	0
63.785846020878	3123.9478430012	0
98.923522370246	3108.1745797773	0
32.778693027215	3143.4002062742	0
21.684049755871	3157.5295365741	0
20.864804317439	3127.4722953182	0
11.232950052496	3143.0514358485	0
168.6299319164	3077.5729639438	0
132.78241630379	3070.8638758411	0
150.81436329375	3038.44	0
206.55731644953	3073.3151413504	0
182.37872658751	3038.44	0
-7.007453175013	3121.705	0
24.435583362292	3071.9048688233	0
-7.007453175013	3093.95	0
-7.007453175013	3038.44	0
25.635511616491	3104.583100095	0
74.610477809157	3104.3184418075	0
93.722093401005	3077.3421767235	0
213.50745317501	3038.44	0
245.50745317501	3038.44	0
52.028054453553	3108.3320897437	0
54.428994884872	3084.1384496507	0
56.121273412494	3038.44	0
119.25	3038.44	0
CELLS 1749 6996
3	0	1	2	
3	3	4	5	
3	6	3	5	
3	7	8	9	
3	10	11	12	
3	13	14	15	
3	11	10	16	
3	6	12	3	
3	17	18	8	
3	19	20	21	
3	22	23	24	
3	25	26	27	
3	27	28	29	
3	30	31	32	
3	33	34	35	
3	36	37	38	
3	39	5	4	
3	40	41	42	
3	39	4	43	
3	44	43	45	
3	46	47	48	
3	49	50	51	
3	52	53	54	
3	26	53	52	
3	55	56	57	
3	58	59	60	
3	61	62	63	
3	11	64	65	
3	66	67	68	
3	51	69	70	
3	71	72	73	
3	74	75	76	
3	62	61	77	
3	78	79	63	
3	38	37	80	
3	81	82	83	
3	77	84	85	
3	34	33	86	
3	87	88	89	
3	90	91	92	
3	93	94	95	
3	96	80	97	
3	85	84	98	
3	99	100	101	
3	88	87	102	
3	102	103	104	
3	83	82	105	
3	106	107	108	
3	22	92	23	
3	109	104	103	
3	110	111	112	
3	113	114	115	
3	79	61	63	
3	116	117	118	
3	119	120	57	
3	69	121	122	
3	123	124	125	
3	126	127	128	
3	119	129	130	
3	131	132	133	
3	0	134	135	
3	136	137	138	
3	139	140	141	
3	142	143	144	
3	145	146	147	
3	148	149	150	
3	13	15	151	
3	152	153	154	
3	155	17	8	
3	82	81	156	
3	157	158	138	
3	159	160	95	
3	152	161	162	
3	116	13	163	
3	164	165	166	
3	125	167	123	
3	116	118	168	
3	169	170	171	
3	111	97	80	
3	172	173	174	
3	175	176	177	
3	178	179	180	
3	181	182	83	
3	183	184	185	
3	54	186	52	
3	105	181	83	
3	187	188	189	
3	190	187	191	
3	162	135	153	
3	192	164	166	
3	189	193	173	
3	127	194	195	
3	196	197	198	
3	178	199	200	
3	201	202	158	
3	134	2	203	
3	204	205	206	
3	207	208	97	
3	209	172	174	
3	210	211	212	
3	213	214	215	
3	168	147	116	
3	216	217	218	
3	184	127	126	
3	215	219	220	
3	221	168	124	
3	101	222	223	
3	224	225	226	
3	13	151	163	
3	227	106	228	
3	157	229	230	
3	231	232	233	
3	234	235	236	
3	237	238	239	
3	240	241	242	
3	243	244	245	
3	246	247	248	
3	249	245	250	
3	251	252	253	
3	247	254	248	
3	255	256	257	
3	151	15	258	
3	259	260	261	
3	262	261	263	
3	118	117	167	
3	264	265	266	
3	267	268	269	
3	270	271	272	
3	273	274	267	
3	267	269	273	
3	275	276	133	
3	144	277	278	
3	268	279	269	
3	243	231	244	
3	280	281	282	
3	283	284	285	
3	286	287	288	
3	289	290	291	
3	292	135	134	
3	50	293	121	
3	294	295	296	
3	297	298	197	
3	299	300	301	
3	302	303	304	
3	122	70	69	
3	305	9	306	
3	307	308	262	
3	298	309	310	
3	311	287	269	
3	309	218	217	
3	304	249	312	
3	313	314	315	
3	154	202	201	
3	313	316	314	
3	317	283	318	
3	319	320	321	
3	249	250	312	
3	9	305	7	
3	322	323	59	
3	312	302	304	
3	311	288	287	
3	74	207	324	
3	142	144	160	
3	79	325	326	
3	327	328	329	
3	330	131	331	
3	332	333	334	
3	161	152	335	
3	329	328	336	
3	337	224	226	
3	336	338	339	
3	340	341	342	
3	167	125	118	
3	264	343	239	
3	344	345	346	
3	347	348	349	
3	350	351	352	
3	353	354	355	
3	356	19	357	
3	358	359	360	
3	346	345	361	
3	362	358	363	
3	351	350	364	
3	364	365	366	
3	367	333	199	
3	368	369	370	
3	344	365	345	
3	353	371	372	
3	211	373	212	
3	374	227	375	
3	236	235	376	
3	338	336	377	
3	111	80	37	
3	378	379	380	
3	381	308	307	
3	128	127	195	
3	381	382	308	
3	382	381	383	
3	347	255	257	
3	384	385	75	
3	386	387	234	
3	124	388	221	
3	389	390	391	
3	323	392	393	
3	394	342	395	
3	391	396	389	
3	397	31	398	
3	218	297	216	
3	336	328	399	
3	400	401	402	
3	403	404	405	
3	386	403	406	
3	349	255	347	
3	358	360	363	
3	391	390	407	
3	406	403	405	
3	408	397	18	
3	409	334	333	
3	410	411	412	
3	413	414	355	
3	415	416	417	
3	418	148	14	
3	110	419	111	
3	384	74	420	
3	421	422	192	
3	166	421	192	
3	423	424	156	
3	241	240	425	
3	426	165	164	
3	427	428	113	
3	7	422	155	
3	166	165	421	
3	42	429	242	
3	242	430	42	
3	422	7	192	
3	322	431	323	
3	431	392	323	
3	432	433	230	
3	434	435	436	
3	112	437	100	
3	438	431	322	
3	58	438	322	
3	439	393	440	
3	426	439	440	
3	105	441	181	
3	434	436	238	
3	426	164	439	
3	32	31	397	
3	272	180	179	
3	442	443	444	
3	444	445	446	
3	14	258	15	
3	397	408	32	
3	198	447	369	
3	448	449	94	
3	440	393	392	
3	446	442	444	
3	86	445	34	
3	192	450	164	
3	451	439	164	
3	443	442	452	
3	163	117	116	
3	240	242	429	
3	369	447	453	
3	155	8	7	
3	425	454	455	
3	154	456	202	
3	285	284	135	
3	452	115	457	
3	118	125	168	
3	113	454	114	
3	241	425	455	
3	57	120	216	
3	458	459	60	
3	41	40	30	
3	457	443	452	
3	241	113	428	
3	427	115	452	
3	41	429	42	
3	430	242	241	
3	460	461	66	
3	460	282	462	
3	30	40	31	
3	108	463	106	
3	385	384	47	
3	156	424	82	
3	66	282	460	
3	464	66	461	
3	247	246	465	
3	40	42	430	
3	282	463	462	
3	466	467	468	
3	107	106	227	
3	469	150	149	
3	463	108	462	
3	470	59	323	
3	148	418	149	
3	438	58	471	
3	126	171	184	
3	107	227	472	
3	75	473	76	
3	100	99	112	
3	223	474	475	
3	475	474	476	
3	254	247	446	
3	113	241	455	
3	239	477	265	
3	475	476	181	
3	478	133	276	
3	83	182	81	
3	476	182	181	
3	432	201	433	
3	218	309	298	
3	474	223	222	
3	384	67	48	
3	208	207	479	
3	480	481	482	
3	76	479	207	
3	38	80	96	
3	105	82	483	
3	451	393	439	
3	46	67	464	
3	398	31	40	
3	112	37	36	
3	112	36	437	
3	454	113	455	
3	47	384	48	
3	222	101	484	
3	76	473	479	
3	323	451	470	
3	50	417	293	
3	459	458	423	
3	86	446	445	
3	441	485	475	
3	113	115	427	
3	486	183	185	
3	486	185	415	
3	459	471	60	
3	281	280	468	
3	487	362	363	
3	424	423	458	
3	348	347	488	
3	183	194	184	
3	75	74	384	
3	485	441	489	
3	490	491	492	
3	475	101	223	
3	493	70	122	
3	49	494	417	
3	360	487	363	
3	305	192	7	
3	49	417	50	
3	68	280	282	
3	493	495	496	
3	69	51	50	
3	18	17	408	
3	473	75	385	
3	495	266	496	
3	497	496	266	
3	171	185	184	
3	498	148	499	
3	498	258	14	
3	122	495	493	
3	97	208	96	
3	68	282	66	
3	298	310	447	
3	9	8	18	
3	500	149	205	
3	152	201	335	
3	227	374	472	
3	217	216	120	
3	158	157	433	
3	305	501	450	
3	502	490	503	
3	323	393	451	
3	502	362	487	
3	504	500	505	
3	46	48	67	
3	506	507	508	
3	161	1	162	
3	480	482	35	
3	201	432	335	
3	503	362	502	
3	446	86	254	
3	257	488	347	
3	194	127	184	
3	13	147	146	
3	508	509	510	
3	124	123	130	
3	415	494	486	
3	457	115	114	
3	511	276	275	
3	133	132	275	
3	228	375	227	
3	484	100	437	
3	200	333	332	
3	427	452	442	
3	511	332	334	
3	511	334	276	
3	207	97	419	
3	181	441	475	
3	512	224	142	
3	492	503	490	
3	132	131	513	
3	131	330	513	
3	497	265	477	
3	239	265	264	
3	401	400	330	
3	272	179	270	
3	512	225	224	
3	225	402	226	
3	463	282	281	
3	401	337	226	
3	142	159	512	
3	160	93	95	
3	131	478	514	
3	74	76	207	
3	515	488	257	
3	515	516	517	
3	128	195	359	
3	276	409	518	
3	239	519	477	
3	434	238	237	
3	519	239	238	
3	436	519	238	
3	513	330	400	
3	144	143	277	
3	265	497	266	
3	416	415	185	
3	140	139	520	
3	324	207	419	
3	210	520	139	
3	521	373	522	
3	367	199	180	
3	66	464	67	
3	380	517	516	
3	417	494	415	
3	522	373	211	
3	178	180	199	
3	122	121	495	
3	159	142	160	
3	199	333	200	
3	380	523	517	
3	19	492	136	
3	264	266	495	
3	254	86	33	
3	349	348	435	
3	247	442	446	
3	101	100	484	
3	469	500	504	
3	503	492	19	
3	359	358	128	
3	524	495	121	
3	137	229	157	
3	150	499	148	
3	212	373	525	
3	526	180	272	
3	521	522	523	
3	373	521	525	
3	515	257	516	
3	378	516	257	
3	435	434	349	
3	255	349	434	
3	337	330	331	
3	226	402	401	
3	271	270	141	
3	180	526	367	
3	212	525	527	
3	528	277	143	
3	277	529	278	
3	482	33	35	
3	143	142	224	
3	278	93	160	
3	278	160	144	
3	448	94	93	
3	158	202	530	
3	491	137	492	
3	500	205	204	
3	157	138	137	
3	230	433	157	
3	138	530	20	
3	357	19	21	
3	125	124	168	
3	196	55	297	
3	55	57	216	
3	298	297	218	
3	318	283	531	
3	145	147	221	
3	56	532	533	
3	59	58	322	
3	60	471	58	
3	483	458	534	
3	60	59	458	
3	18	397	9	
3	306	9	397	
3	241	428	535	
3	398	40	536	
3	481	480	449	
3	248	254	537	
3	482	537	33	
3	254	33	537	
3	538	419	110	
3	228	281	468	
3	424	483	82	
3	483	424	458	
3	112	111	37	
3	97	111	419	
3	185	171	539	
3	264	495	524	
3	128	358	126	
3	358	362	356	
3	447	197	298	
3	169	126	358	
3	210	212	520	
3	212	140	520	
3	523	380	521	
3	525	521	380	
3	237	239	343	
3	540	212	527	
3	131	133	478	
3	514	541	542	
3	141	140	271	
3	272	543	526	
3	543	272	271	
3	526	543	544	
3	545	224	337	
3	545	143	224	
3	546	547	448	
3	448	93	278	
3	229	137	491	
3	548	508	507	
3	524	176	549	
3	550	531	283	
3	305	306	501	
3	451	164	450	
3	442	247	465	
3	105	551	441	
3	449	448	481	
3	481	448	547	
3	547	482	481	
3	547	537	482	
3	463	228	106	
3	552	553	554	
3	458	59	534	
3	105	483	551	
3	489	551	534	
3	99	110	112	
3	50	121	69	
3	121	293	524	
3	135	284	153	
3	555	293	417	
3	380	516	378	
3	556	255	434	
3	330	337	401	
3	528	143	545	
3	271	140	543	
3	543	140	544	
3	131	514	331	
3	398	536	306	
3	557	134	203	
3	292	204	206	
3	557	204	134	
3	533	221	56	
3	546	529	558	
3	559	547	546	
3	280	560	466	
3	553	552	560	
3	483	534	551	
3	441	551	489	
3	416	185	539	
3	367	526	544	
3	337	331	545	
3	542	545	331	
3	255	556	256	
3	541	514	561	
3	2	134	0	
3	136	492	137	
3	177	176	555	
3	177	555	539	
3	535	562	563	
3	564	110	99	
3	154	201	152	
3	116	147	13	
3	59	470	565	
3	375	228	468	
3	55	196	532	
3	356	507	566	
3	119	57	129	
3	555	416	539	
3	177	539	170	
3	19	362	503	
3	154	153	284	
3	417	416	555	
3	135	162	0	
3	146	567	568	
3	505	500	557	
3	379	378	569	
3	570	101	475	
3	570	99	101	
3	570	485	571	
3	99	570	564	
3	420	67	384	
3	572	74	324	
3	264	524	549	
3	434	237	556	
3	276	334	409	
3	518	561	478	
3	367	573	333	
3	574	409	573	
3	219	575	576	
3	577	576	575	
3	536	40	430	
3	306	397	398	
3	237	343	556	
3	380	379	525	
3	0	162	1	
3	297	197	196	
3	531	510	318	
3	357	21	548	
3	578	579	580	
3	388	129	57	
3	581	582	583	
3	14	146	418	
3	129	388	124	
3	584	585	568	
3	546	448	278	
3	248	537	547	
3	545	542	528	
3	430	535	536	
3	555	176	293	
3	129	124	130	
3	343	264	549	
3	379	527	525	
3	478	276	518	
3	561	514	478	
3	573	409	333	
3	544	586	367	
3	248	559	246	
3	574	518	409	
3	430	241	535	
3	428	562	535	
3	378	257	256	
3	378	256	569	
3	357	548	507	
3	587	588	589	
3	284	283	456	
3	532	56	55	
3	590	550	292	
3	584	591	590	
3	592	575	219	
3	418	146	568	
3	546	278	529	
3	559	248	547	
3	518	574	587	
3	331	514	542	
3	588	587	574	
3	140	212	540	
3	510	509	318	
3	590	206	585	
3	277	528	529	
3	558	529	528	
3	587	561	518	
3	561	587	541	
3	573	588	574	
3	367	586	573	
3	285	292	550	
3	317	509	530	
3	593	541	594	
3	489	595	571	
3	588	573	586	
3	596	588	586	
3	597	598	599	
3	549	600	343	
3	21	509	548	
3	583	601	581	
3	602	213	601	
3	598	603	580	
3	501	604	450	
3	604	470	451	
3	605	536	563	
3	565	534	59	
3	606	565	470	
3	607	608	374	
3	594	541	589	
3	528	542	609	
3	500	469	149	
3	540	610	611	
3	569	256	612	
3	379	613	527	
3	343	600	556	
3	379	569	613	
3	614	615	616	
3	617	618	290	
3	134	204	292	
3	619	549	176	
3	597	599	532	
3	418	568	585	
3	567	146	145	
3	540	611	544	
3	569	612	613	
3	620	613	612	
3	419	538	324	
3	324	538	572	
3	562	428	621	
3	570	571	622	
3	607	374	375	
3	623	177	170	
3	203	505	557	
3	293	176	524	
3	214	213	602	
3	601	289	581	
3	624	625	220	
3	485	489	571	
3	475	485	570	
3	68	67	420	
3	280	68	560	
3	74	572	420	
3	68	420	560	
3	527	610	540	
3	527	613	620	
3	509	317	318	
3	289	601	617	
3	465	427	442	
3	428	427	621	
3	556	600	256	
3	589	541	587	
3	536	535	563	
3	538	110	564	
3	606	604	626	
3	228	463	281	
3	607	375	627	
3	607	628	629	
3	538	564	630	
3	629	608	607	
3	572	553	420	
3	560	420	553	
3	246	559	631	
3	541	632	542	
3	595	534	565	
3	595	489	534	
3	562	621	633	
3	633	563	562	
3	6	10	12	
3	193	189	188	
3	3	12	634	
3	85	62	77	
3	469	635	150	
3	173	193	174	
3	636	637	638	
3	252	639	253	
3	640	641	642	
3	643	644	645	
3	361	339	338	
3	336	339	329	
3	406	387	386	
3	387	235	234	
3	246	621	465	
3	621	427	465	
3	447	198	197	
3	136	20	19	
3	646	647	648	
3	649	650	624	
3	546	558	559	
3	631	559	558	
3	651	588	596	
3	621	631	633	
3	209	652	576	
3	653	652	193	
3	604	606	470	
3	565	654	595	
3	610	527	620	
3	544	140	540	
3	305	450	192	
3	451	450	604	
3	468	280	466	
3	472	374	608	
3	618	578	580	
3	655	656	596	
3	507	657	566	
3	600	549	619	
3	612	600	658	
3	659	599	660	
3	558	661	631	
3	595	662	571	
3	663	572	538	
3	571	662	622	
3	621	246	631	
3	664	665	593	
3	666	626	605	
3	605	306	536	
3	64	16	667	
3	668	22	24	
3	90	669	670	
3	23	92	91	
3	25	671	672	
3	673	188	190	
3	325	78	674	
3	414	73	72	
3	354	413	355	
3	61	79	326	
3	24	675	676	
3	677	77	678	
3	679	680	84	
3	104	88	102	
3	191	681	190	
3	190	188	187	
3	149	418	205	
3	433	201	158	
3	682	653	683	
3	172	209	577	
3	684	307	263	
3	685	686	236	
3	312	250	687	
3	307	262	263	
3	688	315	314	
3	304	243	249	
3	637	689	311	
3	252	251	690	
3	691	287	286	
3	640	692	641	
3	351	364	366	
3	351	693	694	
3	695	696	344	
3	697	71	73	
3	698	327	699	
3	341	412	411	
3	395	700	701	
3	702	394	701	
3	404	703	389	
3	342	394	340	
3	703	403	386	
3	405	404	396	
3	236	376	704	
3	705	706	644	
3	221	533	145	
3	453	370	369	
3	215	592	219	
3	530	202	317	
3	593	632	541	
3	651	589	588	
3	661	707	708	
3	709	710	662	
3	655	610	620	
3	611	586	544	
3	656	651	596	
3	651	594	589	
3	676	667	668	
3	16	64	11	
3	23	91	711	
3	12	11	65	
3	675	24	23	
3	676	668	24	
3	87	89	669	
3	712	91	670	
3	672	713	54	
3	193	188	683	
3	71	674	72	
3	325	79	78	
3	714	413	354	
3	77	61	678	
3	350	352	371	
3	715	354	372	
3	716	712	88	
3	90	670	91	
3	109	103	98	
3	104	109	680	
3	681	191	186	
3	681	673	190	
3	624	219	576	
3	592	215	214	
3	652	209	174	
3	576	577	209	
3	684	691	286	
3	286	717	718	
3	645	307	719	
3	382	383	706	
3	274	691	259	
3	260	684	263	
3	279	268	638	
3	720	233	232	
3	273	287	691	
3	261	260	263	
3	637	311	279	
3	721	311	689	
3	722	232	231	
3	637	639	689	
3	723	316	724	
3	694	715	351	
3	353	372	354	
3	365	344	366	
3	693	366	344	
3	361	338	346	
3	695	346	338	
3	410	699	411	
3	327	698	328	
3	702	340	394	
3	399	328	698	
3	725	700	407	
3	395	701	394	
3	410	726	727	
3	725	728	299	
3	728	390	389	
3	725	407	390	
3	703	404	403	
3	389	396	404	
3	704	376	705	
3	704	685	236	
3	193	683	653	
3	21	530	509	
3	606	654	565	
3	596	611	655	
3	566	170	169	
3	667	676	64	
3	65	634	12	
3	23	711	729	
3	730	25	29	
3	669	89	670	
3	712	670	89	
3	26	25	53	
3	672	53	25	
3	674	71	325	
3	326	678	61	
3	413	714	731	
3	716	732	711	
3	414	413	73	
3	697	73	413	
3	371	352	372	
3	715	372	352	
3	98	84	109	
3	84	77	679	
3	186	54	681	
3	673	683	188	
3	53	672	54	
3	213	220	617	
3	145	733	567	
3	221	147	168	
3	645	383	381	
3	644	706	383	
3	259	691	260	
3	287	273	269	
3	724	313	320	
3	690	720	232	
3	734	722	735	
3	252	690	689	
3	699	410	698	
3	399	377	336	
3	410	412	726	
3	736	714	694	
3	341	340	412	
3	726	412	340	
3	700	725	701	
3	702	701	725	
3	686	234	236	
3	727	377	399	
3	705	644	704	
3	685	704	644	
3	593	594	664	
3	528	609	558	
3	64	676	65	
3	737	65	676	
3	680	88	104	
3	738	88	680	
3	325	71	326	
3	739	326	71	
3	366	693	351	
3	694	714	715	
3	738	716	88	
3	712	716	711	
3	204	557	500	
3	614	656	740	
3	691	274	273	
3	234	686	386	
3	741	742	743	
3	690	232	722	
3	698	410	399	
3	727	399	410	
3	725	390	728	
3	744	728	389	
3	383	645	644	
3	686	745	386	
3	651	656	594	
3	664	594	656	
3	88	712	89	
3	91	712	711	
3	351	715	352	
3	354	715	714	
3	84	680	109	
3	679	738	680	
3	691	684	260	
3	638	637	279	
3	746	723	724	
3	233	244	231	
3	633	708	747	
3	709	748	749	
3	677	678	750	
3	65	737	634	
3	751	693	696	
3	679	77	677	
3	243	304	303	
3	752	307	684	
3	678	326	739	
3	750	753	677	
3	679	754	738	
3	302	642	755	
3	570	622	564	
3	564	622	630	
3	632	593	756	
3	558	609	661	
3	170	539	171	
3	283	285	550	
3	650	757	758	
3	683	759	682	
3	709	662	595	
3	552	466	560	
3	760	45	43	
3	29	25	27	
3	251	720	690	
3	249	243	245	
3	253	639	636	
3	286	718	684	
3	554	572	663	
3	761	467	552	
3	466	552	467	
3	553	572	554	
3	627	375	468	
3	650	625	624	
3	762	763	764	
3	630	663	538	
3	761	552	554	
3	39	43	44	
3	765	43	4	
3	759	766	713	
3	767	580	603	
3	687	640	642	
3	311	269	279	
3	768	769	770	
3	771	772	773	
3	774	301	775	
3	56	221	388	
3	602	601	583	
3	590	292	206	
3	776	591	584	
3	777	506	508	
3	655	611	610	
3	596	586	611	
3	23	729	675	
3	676	675	737	
3	717	286	288	
3	685	778	686	
3	344	346	695	
3	344	696	693	
3	377	779	338	
3	780	377	727	
3	703	744	389	
3	702	299	301	
3	198	369	781	
3	597	196	198	
3	661	708	631	
3	468	467	627	
3	730	671	25	
3	671	730	782	
3	413	731	697	
3	71	697	739	
3	681	54	673	
3	766	54	713	
3	702	774	340	
3	340	774	726	
3	756	593	665	
3	609	542	632	
3	737	675	729	
3	683	673	766	
3	739	697	731	
3	736	731	714	
3	507	356	357	
3	418	585	205	
3	702	725	299	
3	783	696	695	
3	685	643	784	
3	744	299	728	
3	740	656	655	
3	614	664	656	
3	776	584	785	
3	660	598	786	
3	765	4	3	
3	44	45	28	
3	627	787	788	
3	789	467	761	
3	628	790	791	
3	629	628	791	
3	619	176	175	
3	658	619	792	
3	793	554	663	
3	554	793	761	
3	710	622	662	
3	622	710	630	
3	193	652	174	
3	683	766	759	
3	717	721	794	
3	581	368	582	
3	692	746	641	
3	782	760	765	
3	690	734	689	
3	722	734	690	
3	783	795	796	
3	755	642	641	
3	531	591	797	
3	746	798	641	
3	639	252	689	
3	637	636	639	
3	303	231	243	
3	735	231	303	
3	642	312	687	
3	312	642	302	
3	719	307	752	
3	799	655	620	
3	738	754	800	
3	672	671	647	
3	307	645	381	
3	645	719	643	
3	288	311	721	
3	718	801	752	
3	695	338	779	
3	779	783	695	
3	796	751	696	
3	802	736	751	
3	386	745	703	
3	726	774	727	
3	784	778	685	
3	803	703	745	
3	358	356	169	
3	804	805	777	
3	388	57	56	
3	205	585	206	
3	693	751	694	
3	796	802	751	
3	744	703	803	
3	301	774	702	
3	317	456	283	
3	368	370	582	
3	661	756	707	
3	609	632	756	
3	504	635	469	
3	216	297	55	
3	806	765	807	
3	634	737	808	
3	760	43	765	
3	29	28	45	
3	730	760	782	
3	29	45	760	
3	809	663	630	
3	663	809	793	
3	710	709	749	
3	630	710	809	
3	356	566	169	
3	603	198	781	
3	735	810	811	
3	796	795	802	
3	320	319	724	
3	29	760	730	
3	777	510	797	
3	717	288	721	
3	768	302	812	
3	302	768	303	
3	231	735	722	
3	734	813	689	
3	814	815	816	
3	755	798	812	
3	784	643	719	
3	685	644	643	
3	817	811	810	
3	794	721	813	
3	377	780	779	
3	694	751	736	
3	795	783	779	
3	696	783	796	
3	54	766	673	
3	713	646	759	
3	153	152	162	
3	646	713	647	
3	154	284	456	
3	765	806	782	
3	818	788	787	
3	789	761	793	
3	135	292	285	
3	597	603	598	
3	782	819	671	
3	815	820	821	
3	746	724	798	
3	724	316	313	
3	723	746	692	
3	724	319	798	
3	729	732	822	
3	302	755	812	
3	812	798	319	
3	755	641	798	
3	647	819	648	
3	14	13	146	
3	3	807	765	
3	671	819	647	
3	509	508	548	
3	797	510	531	
3	816	821	823	
3	821	816	815	
3	313	315	824	
3	825	688	814	
3	303	810	735	
3	453	447	310	
3	368	291	781	
3	688	825	315	
3	321	826	827	
3	647	713	672	
3	498	14	148	
3	816	828	825	
3	825	828	315	
3	782	806	819	
3	138	20	136	
3	816	823	828	
3	814	816	825	
3	829	830	743	
3	824	826	320	
3	826	828	823	
3	313	824	320	
3	823	742	831	
3	832	321	827	
3	315	828	824	
3	826	824	828	
3	576	652	649	
3	833	682	646	
3	566	623	170	
3	368	581	291	
3	501	626	604	
3	605	501	306	
3	499	150	635	
3	256	600	612	
3	654	606	834	
3	501	605	626	
3	609	756	661	
3	707	756	665	
3	835	836	175	
3	568	567	785	
3	778	837	745	
3	744	838	299	
3	791	790	839	
3	628	607	627	
3	803	745	837	
3	301	300	775	
3	780	795	779	
3	840	841	842	
3	716	738	800	
3	20	530	21	
3	732	729	711	
3	843	844	840	
3	799	620	658	
3	733	785	567	
3	617	625	618	
3	819	806	845	
3	563	666	605	
3	666	563	633	
3	665	664	614	
3	631	708	633	
3	778	745	686	
3	803	838	744	
3	752	846	784	
3	847	774	775	
3	848	788	849	
3	467	789	787	
3	299	838	300	
3	850	780	847	
3	845	808	843	
3	646	648	833	
3	846	851	852	
3	853	854	300	
3	848	790	788	
3	300	838	853	
3	795	780	850	
3	803	837	838	
3	853	838	837	
3	788	790	628	
3	848	839	790	
3	717	801	718	
3	784	719	752	
3	677	753	754	
3	806	807	808	
3	753	855	754	
3	737	729	822	
3	847	727	774	
3	780	727	847	
3	739	856	750	
3	731	736	856	
3	834	748	654	
3	857	789	858	
3	623	175	177	
3	733	145	533	
3	859	319	321	
3	817	810	770	
3	860	861	862	
3	832	827	860	
3	768	812	769	
3	834	606	626	
3	709	595	654	
3	758	578	650	
3	290	580	767	
3	579	786	580	
3	624	576	649	
3	809	858	793	
3	809	863	858	
3	737	822	808	
3	808	822	843	
3	864	660	786	
3	865	864	786	
3	665	616	707	
3	866	834	867	
3	868	708	707	
3	708	868	747	
3	628	627	788	
3	627	467	787	
3	869	855	753	
3	732	716	800	
3	812	319	859	
3	303	768	810	
3	826	321	320	
3	321	832	859	
3	666	867	626	
3	834	626	867	
3	579	870	865	
3	356	362	19	
3	616	868	707	
3	863	749	763	
3	871	789	857	
3	788	818	849	
3	831	826	823	
3	831	827	826	
3	859	832	872	
3	812	859	769	
3	872	832	860	
3	862	872	860	
3	859	872	769	
3	768	770	810	
3	769	872	770	
3	817	770	872	
3	794	873	874	
3	813	721	689	
3	827	831	860	
3	875	861	860	
3	750	678	739	
3	754	679	677	
3	506	876	657	
3	665	614	616	
3	734	735	811	
3	811	813	734	
3	603	597	198	
3	877	878	833	
3	202	456	317	
3	625	617	220	
3	879	880	785	
3	821	820	829	
3	881	882	883	
3	649	652	653	
3	578	758	579	
3	3	634	807	
3	808	807	634	
3	844	822	296	
3	660	879	659	
3	778	884	885	
3	850	802	795	
3	886	801	717	
3	684	718	752	
3	878	682	833	
3	598	580	786	
3	868	887	747	
3	749	809	710	
3	581	289	291	
3	599	598	660	
3	856	739	731	
3	802	888	736	
3	889	874	890	
3	846	886	851	
3	578	618	625	
3	213	215	220	
3	171	126	169	
3	767	603	781	
3	623	876	175	
3	568	785	584	
3	533	659	733	
3	220	219	624	
3	750	856	891	
3	732	800	296	
3	888	856	736	
3	296	822	732	
3	846	801	886	
3	846	852	784	
3	597	532	196	
3	892	893	857	
3	648	894	833	
3	579	758	870	
3	757	895	758	
3	175	836	619	
3	896	799	897	
3	591	776	797	
3	886	717	794	
3	752	801	846	
3	873	794	813	
3	886	874	851	
3	851	898	852	
3	886	794	874	
3	890	874	873	
3	784	884	778	
3	854	775	300	
3	899	775	854	
3	834	866	748	
3	900	666	747	
3	763	866	764	
3	749	863	809	
3	900	866	867	
3	858	789	793	
3	742	741	901	
3	742	823	821	
3	743	821	829	
3	901	860	831	
3	800	754	855	
3	753	750	891	
3	659	879	733	
3	878	653	682	
3	811	817	873	
3	813	811	873	
3	533	532	599	
3	845	842	894	
3	291	767	781	
3	623	566	657	
3	888	902	856	
3	294	869	903	
3	904	856	902	
3	753	891	869	
3	777	797	804	
3	599	659	533	
3	850	847	899	
3	855	869	294	
3	900	867	666	
3	748	866	763	
3	887	900	747	
3	866	900	764	
3	749	748	763	
3	748	709	654	
3	905	764	900	
3	764	905	762	
3	743	742	821	
3	771	875	906	
3	901	831	742	
3	294	903	295	
3	295	844	296	
3	294	296	855	
3	296	800	855	
3	902	888	907	
3	908	902	909	
3	891	904	869	
3	904	908	903	
3	805	506	777	
3	910	762	905	
3	856	904	891	
3	904	902	908	
3	858	911	857	
3	863	763	762	
3	741	906	901	
3	901	906	875	
3	912	862	773	
3	901	875	860	
3	913	907	888	
3	819	845	894	
3	904	903	869	
3	908	914	295	
3	871	893	915	
3	787	871	818	
3	787	789	871	
3	915	849	818	
3	916	854	853	
3	899	847	775	
3	785	733	879	
3	835	805	917	
3	850	913	802	
3	888	802	913	
3	851	874	889	
3	885	837	778	
3	805	804	881	
3	896	740	799	
3	291	290	767	
3	918	881	880	
3	649	757	650	
3	880	879	919	
3	776	785	880	
3	877	920	895	
3	912	773	921	
3	773	861	771	
3	550	590	531	
3	658	620	612	
3	863	911	858	
3	922	762	910	
3	885	853	837	
3	850	923	913	
3	854	916	899	
3	923	899	916	
3	924	792	925	
3	918	882	881	
3	506	835	876	
3	836	925	792	
3	771	861	875	
3	921	773	772	
3	862	861	773	
3	817	872	862	
3	908	295	903	
3	295	914	844	
3	893	871	857	
3	915	818	871	
3	616	615	926	
3	158	530	138	
3	925	836	835	
3	924	897	792	
3	590	585	584	
3	369	368	781	
3	896	897	924	
3	648	819	894	
3	927	833	894	
3	928	740	896	
3	660	919	879	
3	290	618	580	
3	929	916	885	
3	852	898	884	
3	912	817	862	
3	930	873	912	
3	898	851	889	
3	784	852	884	
3	931	898	889	
3	929	885	884	
3	929	884	898	
3	916	853	885	
3	887	926	932	
3	776	881	804	
3	646	682	759	
3	933	893	892	
3	930	890	873	
3	817	912	873	
3	619	658	600	
3	933	892	934	
3	880	919	918	
3	935	933	934	
3	506	805	835	
3	510	777	508	
3	822	844	843	
3	927	894	842	
3	617	601	213	
3	928	896	936	
3	740	655	799	
3	880	881	776	
3	633	747	666	
3	616	926	868	
3	923	850	899	
3	909	907	937	
3	762	922	863	
3	938	911	922	
3	757	653	878	
3	865	870	939	
3	911	938	857	
3	915	893	933	
3	940	912	921	
3	941	942	930	
3	942	890	930	
3	943	944	909	
3	898	931	929	
3	929	931	945	
3	619	836	792	
3	845	843	842	
3	938	892	857	
3	911	863	922	
3	531	590	591	
3	908	909	944	
3	928	614	740	
3	799	658	897	
3	653	757	649	
3	900	887	905	
3	865	786	579	
3	946	887	932	
3	945	947	948	
3	175	876	835	
3	939	870	895	
3	805	881	883	
3	910	949	938	
3	892	938	949	
3	927	841	920	
3	289	617	290	
3	615	950	951	
3	758	895	870	
3	922	910	938	
3	868	926	887	
3	804	797	776	
3	952	925	953	
3	876	623	657	
3	625	650	578	
3	864	865	954	
3	615	614	928	
3	772	955	921	
3	940	921	955	
3	941	956	957	
3	912	940	930	
3	958	941	959	
3	941	940	959	
3	940	941	930	
3	940	955	959	
3	945	948	937	
3	937	907	913	
3	808	845	806	
3	506	657	507	
3	937	913	923	
3	909	902	907	
3	956	958	960	
3	961	889	890	
3	923	916	945	
3	962	961	957	
3	792	897	658	
3	919	660	864	
3	895	757	878	
3	877	833	927	
3	950	928	936	
3	615	951	926	
3	924	936	896	
3	924	925	952	
3	936	952	950	
3	615	928	950	
3	936	924	952	
3	887	946	905	
3	917	953	835	
3	925	835	953	
3	864	954	918	
3	917	963	953	
3	932	926	951	
3	964	965	966	
3	842	843	840	
3	895	967	939	
3	954	865	939	
3	918	919	864	
3	917	883	968	
3	952	953	965	
3	918	954	882	
3	951	950	965	
3	950	952	965	
3	946	932	969	
3	877	927	920	
3	895	878	877	
3	914	840	844	
3	908	944	914	
3	895	920	967	
3	967	970	971	
3	939	967	954	
3	970	967	920	
3	905	946	910	
3	932	951	969	
3	965	953	963	
3	965	963	966	
3	968	883	882	
3	917	805	883	
3	840	914	944	
3	920	841	970	
3	841	927	842	
3	944	972	840	
3	963	968	973	
3	963	973	966	
3	973	882	954	
3	963	917	968	
3	974	971	975	
3	968	882	973	
3	937	923	945	
3	970	975	971	
3	976	977	943	
3	967	971	954	
3	978	970	841	
3	973	954	971	
3	958	956	941	
3	890	942	961	
3	947	979	948	
3	962	957	980	
3	957	961	942	
3	889	961	962	
3	941	957	942	
3	957	956	980	
3	976	979	981	
3	948	943	937	
3	980	931	962	
3	889	962	931	
3	979	980	982	
3	937	943	909	
3	965	964	951	
3	949	910	946	
3	966	973	974	
3	983	984	985	
3	986	949	969	
3	986	983	987	
3	976	943	979	
3	975	984	974	
3	929	945	916	
3	947	945	931	
3	892	949	934	
3	983	964	966	
3	931	980	947	
3	982	988	981	
3	975	970	978	
3	983	974	984	
3	841	840	972	
3	948	979	943	
3	989	990	991	
3	992	976	981	
3	956	982	980	
3	972	978	841	
3	980	979	947	
3	981	979	982	
3	977	944	943	
3	944	977	972	
3	971	974	973	
3	969	964	983	
3	993	994	978	
3	987	995	986	
3	990	992	988	
3	935	995	996	
3	946	969	949	
3	981	988	992	
3	988	982	960	
3	956	960	982	
3	969	951	964	
3	993	972	977	
3	975	994	984	
3	949	986	934	
3	992	997	976	
3	993	997	998	
3	978	972	993	
3	992	990	989	
3	978	994	975	
3	983	966	974	
3	977	997	993	
3	976	997	977	
3	999	998	989	
3	999	1000	994	
3	998	994	993	
3	992	998	997	
3	994	998	999	
3	986	935	934	
3	983	986	969	
3	935	986	995	
3	994	1000	984	
3	985	987	983	
3	984	1000	985	
3	999	989	991	
3	998	992	989	
CELL_TYPES 1749
5 5 5 5 5 5 5 5 5 5 5 5 5 5 5 5 5 5 5 5 5 5 5 5 5 5 5 5 5 5 5 5 5 5 5 5 5 5 5 5 5 5 5 5 5 5 5 5 5 5 5 5 5 5 5 5 5 5 5 5 5 5 5 5 5 5 5 5 5 5 5 5 5 5 5 5 5 5 5 5 5 5 5 5 5 5 5 5 5 5 5 5 5 5 5 5 5 5 5 5 5 5 5 5 5 5 5 5 5 5 5 5 5 5 5 5 5 5 5 5 5 5 5 5 5 5 5 5 5 5 5 5 5 5 5 5 5 5 5 5 5 5 5 5 5 5 5 5 5 5 5 5 5 5 5 5 5 5 5 5 5 5 5 5 5 5 5 5 5 5 5 5 5 5 5 5 5 5 5 5 5 5 5 5 5 5 5 5 5 5 5 5 5 5 5 5 5 5 5 5 5 5 5 5 5 5 5 5 5 5 5 5 5 5 5 5 5 5 5 5 5 5 5 5 5 5 5 5 5 5 5 5 5 5 5 5 5 5 5 5 5 5 5 5 5 5 5 5 5 5 5 5 5 5 5 5 5 5 5 5 5 5 5 5 5 5 5 5 5 5 5 5 5 5 5 5 5 5 5 5 5 5 5 5 5 5 5 5 5 5 5 5 5 5 5 5 5 5 5 5 5 5 5 5 5 5 5 5 5 5 5 5 5 5 5 5 5 5 5 5 5 5 5 5 5 5 5 5 5 5 5 5 5 5 5 5 5 5 5 5 5 5 5 5 5 5 5 5 5 5 5 5 5 5 5 5 5 5 5 5 5 5 5 5 5 5 5 5 5 5 5 5 5 5 5 5 5 5 5 5 5 5 5 5 5 5 5 5 5 5 5 5 5 5 5 5 5 5 5 5 5 5 5 5 5 5 5 5 5 5 5 5 5 5 5 5 5 5 5 5 5 5 5 5 5 5 5 5 5 5 5 5 5 5 5 5 5 5 5 5 5 5 5 5 5 5 5 5 5 5 5 5 5 5 5 5 5 5 5 5 5 5 5 5 5 5 5 5 5 5 5 5 5 5 5 5 5 5 5 5 5 5 5 5 5 5 5 5 5 5 5 5 5 5 5 5 5 5 5 5 5 5 5 5 5 5 5 5 5 5 5 5 5 5 5 5 5 5 5 5 5 5 5 5 5 5 5 5 5 5 5 5 5 5 5 5 5 5 5 5 5 5 5 5 5 5 5 5 5 5 5 5 5 5 5 5 5 5 5 5 5 5 5 5 5 5 5 5 5 5 5 5 5 5 5 5 5 5 5 5 5 5 5 5 5 5 5 5 5 5 5 5 5 5 5 5 5 5 5 5 5 5 5 5 5 5 5 5 5 5 5 5 5 5 5 5 5 5 5 5 5 5 5 5 5 5 5 5 5 5 5 5 5 5 5 5 5 5 5 5 5 5 5 5 5 5 5 5 5 5 5 5 5 5 5 5 5 5 5 5 5 5 5 5 5 5 5 5 5 5 5 5 5 5 5 5 5 5 5 5 5 5 5 5 5 5 5 5 5 5 5 5 5 5 5 5 5 5 5 5 5 5 5 5 5 5 5 5 5 5 5 5 5 5 5 5 5 5 5 5 5 5 5 5 5 5 5 5 5 5 5 5 5 5 5 5 5 5 5 5 5 5 5 5 5 5 5 5 5 5 5 5 5 5 5 5 5 5 5 5 5 5 5 5 5 5 5 5 5 5 5 5 5 5 5 5 5 5 5 5 5 5 5 5 5 5 5 5 5 5 5 5 5 5 5 5 5 5 5 5 5 5 5 5 5 5 5 5 5 5 5 5 5 5 5 5 5 5 5 5 5 5 5 5 5 5 5 5 5 5 5 5 5 5 5 5 5 5 5 5 5 5 5 5 5 5 5 5 5 5 5 5 5 5 5 5 5 5 5 5 5 5 5 5 5 5 5 5 5 5 5 5 5 5 5 5 5 5 5 5 5 5 5 5 5 5 5 5 5 5 5 5 5 5 5 5 5 5 5 5 5 5 5 5 5 5 5 5 5 5 5 5 5 5 5 5 5 5 5 5 5 5 5 5 5 5 5 5 5 5 5 5 5 5 5 5 5 5 5 5 5 5 5 5 5 5 5 5 5 5 5 5 5 5 5 5 5 5 5 5 5 5 5 5 5 5 5 5 5 5 5 5 5 5 5 5 5 5 5 5 5 5 5 5 5 5 5 5 5 5 5 5 5 5 5 5 5 5 5 5 5 5 5 5 5 5 5 5 5 5 5 5 5 5 5 5 5 5 5 5 5 5 5 5 5 5 5 5 5 5 5 5 5 5 5 5 5 5 5 5 5 5 5 5 5 5 5 5 5 5 5 5 5 5 5 5 5 5 5 5 5 5 5 5 5 5 5 5 5 5 5 5 5 5 5 5 5 5 5 5 5 5 5 5 5 5 5 5 5 5 5 5 5 5 5 5 5 5 5 5 5 5 5 5 5 5 5 5 5 5 5 5 5 5 5 5 5 5 5 5 5 5 5 5 5 5 5 5 5 5 5 5 5 5 5 5 5 5 5 5 5 5 5 5 5 5 5 5 5 5 5 5 5 5 5 5 5 5 5 5 5 5 5 5 5 5 5 5 5 5 5 5 5 5 5 5 5 5 5 5 5 5 5 5 5 5 5 5 5 5 5 5 5 5 5 5 5 5 5 5 5 5 5 5 5 5 5 5 5 5 5 5 5 5 5 5 5 5 5 5 5 5 5 5 5 5 5 5 5 5 5 5 5 5 5 5 5 5 5 5 5 5 5 5 5 5 5 5 5 5 5 5 5 5 5 5 5 5 5 5 5 5 5 5 5 5 5 5 5 5 5 5 5 5 5 5 5 5 5 5 5 5 5 5 5 5 5 5 5 5 5 5 5 5 5 5 5 5 5 5 5 5 5 5 5 5 5 5 5 5 5 5 5 5 5 5 5 5 5 5 5 5 5 5 5 5 5 5 5 5 5 5 5 5 5 5 5 5 5 5 5 5 5 5 5 5 5 5 5 5 5 5 5 5 5 5 5 5 5 5 5 5 5 5 5 5 5 5 5 5 5 5 5 5 5 5 5 5 5 5 5 5 5 5 5 5 5 5 5 5 5 5 5 5 5 5 5 5 5 5 5 5 5 5 5 5 5 5 5 5 5 5 5 5 5 5 5 5 5 5 5 5 5 5 5 5 5 5 5 5 5 5 5 5 5 5 5 5 5 5 5 5 5 5 5 5 5 5 5 5 5 5 5 5 5 5 5 5 5 5 5 5 5 5 5 5 5 5 5 5 5 5 5 5 5 5 5 5 5 5 5 5 5 5 5 5 5 5 5 5 5 5 5 5 5 5 5 5 5 5 5 5 5 5 5 5 5 5 5 5 5 5 5 5 5 5 5 5 5 5 5 5 5 5 5 5 5 5 5 5 5 5 5 5 5 5 5 5 5 5 5 5 5 5 5 5 5 5 5 5 5 5 5 5 5 5 5 5 5 5 5 5 5 5 5 5 5 5 5 5 5 5 5 5 5 5 5 5 5 5 5 5 5 5 5 5 5 5 5 5 5 5 5 5 5 5 5 5 5 5 5 5 5 5 5 5 5 5 5 5 5 5 5 5 5 5 5 5 5 5 5 5 5 5 5 5 5 5 5 5 5 5 5 5 5 5 5 5 5 5 5 5 5 5 5 5 5 5 5 5 5 5 5 5 5 5 5 5 5 5 5 5 5 5 5 5 5 5 5 5 5 5 5 5 5 5 5 5 5 5 5 5 5 5 5 5 5 5 5 5 5 5 5 5 5 5 5 5 5 5 5 5 5 5 5 5 5 5 5 5 5 5 5 5 5 5 5 5 5 5 5 5 5 5 5 5 5 5 5 5 5 5 5 5 5 5 5 5 5 5 5 5 5 5 5 5 5 5 5 
CELL_DATA 1749
SCALARS Marker double 1
LOOKUP_TABLE default
0 1 2 3 4 5 6 7 8 9 10 11 12 13 14 15 16 17 18 19 20 21 22 23 24 25 26 27 28 29 30 31 32 33 34 35 36 37 38 39 40 41 42 43 44 45 46 47 48 49 50 51 52 53 54 55 56 57 58 59 60 61 62 63 64 65 66 67 68 69 70 71 72 73 74 75 76 77 78 79 80 81 82 83 84 85 86 87 88 89 90 91 92 93 94 95 96 97 98 99 100 101 102 103 104 105 106 107 108 109 110 111 112 113 114 115 116 117 118 119 120 121 122 123 124 125 126 127 128 129 130 131 132 133 134 135 136 137 138 139 140 141 142 143 144 145 146 147 148 149 150 151 152 153 154 155 156 157 158 159 160 161 162 163 164 165 166 167 168 169 170 171 172 173 174 175 176 177 178 179 180 181 182 183 184 185 186 187 188 189 190 191 192 193 194 195 196 197 198 199 200 201 202 203 204 205 206 207 208 209 210 211 212 213 214 215 216 217 218 219 220 221 222 223 224 225 226 227 228 229 230 231 232 233 234 235 236 237 238 239 240 241 242 243 244 245 246 247 248 249 250 251 252 253 254 255 256 257 258 259 260 261 262 263 264 265 266 267 268 269 270 271 272 273 274 275 276 277 278 279 280 281 282 283 284 285 286 287 288 289 290 291 292 293 294 295 296 297 298 299 300 301 302 303 304 305 306 307 308 309 310 311 312 313 314 315 316 317 318 319 320 321 322 323 324 325 326 327 328 329 330 331 332 333 334 335 336 337 338 339 340 341 342 343 344 345 346 347 348 349 350 351 352 353 354 355 356 357 358 359 360 361 362 363 364 365 366 367 368 369 370 371 372 373 374 375 376 377 378 379 380 381 382 383 384 385 386 387 388 389 390 391 392 393 394 395 396 397 398 399 400 401 402 403 404 405 406 407 408 409 410 411 412 413 414 415 416 417 418 419 420 421 422 423 424 425 426 427 428 429 430 431 432 433 434 435 436 437 438 439 440 441 442 443 444 445 446 447 448 449 450 451 452 453 454 455 456 457 458 459 460 461 462 463 464 465 466 467 468 469 470 471 472 473 474 475 476 477 478 479 480 481 482 483 484 485 486 487 488 489 490 491 492 493 494 495 496 497 498 499 500 501 502 503 504 505 506 507 508 509 510 511 512 513 514 515 516 517 518 519 520 521 522 523 524 525 526 527 528 529 530 531 532 533 534 535 536 537 538 539 540 541 542 543 544 545 546 547 548 549 550 551 552 553 554 555 556 557 558 559 560 561 562 563 564 565 566 567 568 569 570 571 572 573 574 575 576 577 578 579 580 581 582 583 584 585 586 587 588 589 590 591 592 593 594 595 596 597 598 599 600 601 602 603 604 605 606 607 608 609 610 611 612 613 614 615 616 617 618 619 620 621 622 623 624 625 626 627 628 629 630 631 632 633 634 635 636 637 638 639 640 641 642 643 644 645 646 647 648 649 650 651 652 653 654 655 656 657 658 659 660 661 662 663 664 665 666 667 668 669 670 671 672 673 674 675 676 677 678 679 680 681 682 683 684 685 686 687 688 689 690 691 692 693 694 695 696 697 698 699 700 701 702 703 704 705 706 707 708 709 710 711 712 713 714 715 716 717 718 719 720 721 722 723 724 725 726 727 728 729 730 731 732 733 734 735 736 737 738 739 740 741 742 743 744 745 746 747 748 749 750 751 752 753 754 755 756 757 758 759 760 761 762 763 764 765 766 767 768 769 770 771 772 773 774 775 776 777 778 779 780 781 782 783 784 785 786 787 788 789 790 791 792 793 794 795 796 797 798 799 800 801 802 803 804 805 806 807 808 809 810 811 812 813 814 815 816 817 818 819 820 821 822 823 824 825 826 827 828 829 830 831 832 833 834 835 836 837 838 839 840 841 842 843 844 845 846 847 848 849 850 851 852 853 854 855 856 857 858 859 860 861 862 863 864 865 866 867 868 869 870 871 872 873 874 875 876 877 878 879 880 881 882 883 884 885 886 887 888 889 890 891 892 893 894 895 896 897 898 899 900 901 902 903 904 905 906 907 908 909 910 911 912 913 914 915 916 917 918 919 920 921 922 923 924 925 926 927 928 929 930 931 932 933 934 935 936 937 938 939 940 941 942 943 944 945 946 947 948 949 950 951 952 953 954 955 956 957 958 959 960 961 962 963 964 965 966 967 968 969 970 971 972 973 974 975 976 977 978 979 980 981 982 983 984 985 986 987 988 989 990 991 992 993 994 995 996 997 998 999 1000 1001 1002 1003 1004 1005 1006 1007 1008 1009 1010 1011 1012 1013 1014 1015 1016 1017 1018 1019 1020 1021 1022 1023 1024 1025 1026 1027 1028 1029 1030 1031 1032 1033 1034 1035 1036 1037 1038 1039 1040 1041 1042 1043 1044 1045 1046 1047 1048 1049 1050 1051 1052 1053 1054 1055 1056 1057 1058 1059 1060 1061 1062 1063 1064 1065 1066 1067 1068 1069 1070 1071 1072 1073 1074 1075 1076 1077 1078 1079 1080 1081 1082 1083 1084 1085 1086 1087 1088 1089 1090 1091 1092 1093 1094 1095 1096 1097 1098 1099 1100 1101 1102 1103 1104 1105 1106 1107 1108 1109 1110 1111 1112 1113 1114 1115 1116 1117 1118 1119 1120 1121 1122 1123 1124 1125 1126 1127 1128 1129 1130 1131 1132 1133 1134 1135 1136 1137 1138 1139 1140 1141 1142 1143 1144 1145 1146 1147 1148 1149 1150 1151 1152 1153 1154 1155 1156 1157 1158 1159 1160 1161 1162 1163 1164 1165 1166 1167 1168 1169 1170 1171 1172 1173 1174 1175 1176 1177 1178 1179 1180 1181 1182 1183 1184 1185 1186 1187 1188 1189 1190 1191 1192 1193 1194 1195 1196 1197 1198 1199 1200 1201 1202 1203 1204 1205 1206 1207 1208 1209 1210 1211 1212 1213 1214 1215 1216 1217 1218 1219 1220 1221 1222 1223 1224 1225 1226 1227 1228 1229 1230 1231 1232 1233 1234 1235 1236 1237 1238 1239 1240 1241 1242 1243 1244 1245 1246 1247 1248 1249 1250 1251 1252 1253 1254 1255 1256 1257 1258 1259 1260 1261 1262 1263 1264 1265 1266 1267 1268 1269 1270 1271 1272 1273 1274 1275 1276 1277 1278 1279 1280 1281 1282 1283 1284 1285 1286 1287 1288 1289 1290 1291 1292 1293 1294 1295 1296 1297 1298 1299 1300 1301 1302 1303 1304 1305 1306 1307 1308 1309 1310 1311 1312 1313 1314 1315 1316 1317 1318 1319 1320 1321 1322 1323 1324 1325 1326 1327 1328 1329 1330 1331 1332 1333 1334 1335 1336 1337 1338 1339 1340 1341 1342 1343 1344 1345 1346 1347 1348 1349 1350 1351 1352 1353 1354 1355 1356 1357 1358 1359 1360 1361 1362 1363 1364 1365 1366 1367 1368 1369 1370 1371 1372 1373 1374 1375 1376 1377 1378 1379 1380 1381 1382 1383 1384 1385 1386 1387 1388 1389 1390 1391 1392 1393 1394 1395 1396 1397 1398 1399 1400 1401 1402 1403 1404 1405 1406 1407 1408 1409 1410 1411 1412 1413 1414 1415 1416 1417 1418 1419 1420 1421 1422 1423 1424 1425 1426 1427 1428 1429 1430 1431 1432 1433 1434 1435 1436 1437 1438 1439 1440 1441 1442 1443 1444 1445 1446 1447 1448 1449 1450 1451 1452 1453 1454 1455 1456 1457 1458 1459 1460 1461 1462 1463 1464 1465 1466 1467 1468 1469 1470 1471 1472 1473 1474 1475 1476 1477 1478 1479 1480 1481 1482 1483 1484 1485 1486 1487 1488 1489 1490 1491 1492 1493 1494 1495 1496 1497 1498 1499 1500 1501 1502 1503 1504 1505 1506 1507 1508 1509 1510 1511 1512 1513 1514 1515 1516 1517 1518 1519 1520 1521 1522 1523 1524 1525 1526 1527 1528 1529 1530 1531 1532 1533 1534 1535 1536 1537 1538 1539 1540 1541 1542 1543 1544 1545 1546 1547 1548 1549 1550 1551 1552 1553 1554 1555 1556 1557 1558 1559 1560 1561 1562 1563 1564 1565 1566 1567 1568 1569 1570 1571 1572 1573 1574 1575 1576 1577 1578 1579 1580 1581 1582 1583 1584 1585 1586 1587 1588 1589 1590 1591 1592 1593 1594 1595 1596 1597 1598 1599 1600 1601 1602 1603 1604 1605 1606 1607 1608 1609 1610 1611 1612 1613 1614 1615 1616 1617 1618 1619 1620 1621 1622 1623 1624 1625 1626 1627 1628 1629 1630 1631 1632 1633 1634 1635 1636 1637 1638 1639 1640 1641 1642 1643 1644 1645 1646 1647 1648 1649 1650 1651 1652 1653 1654 1655 1656 1657 1658 1659 1660 1661 1662 1663 1664 1665 1666 1667 1668 1669 1670 1671 1672 1673 1674 1675 1676 1677 1678 1679 1680 1681 1682 1683 1684 1685 1686 1687 1688 1689 1690 1691 1692 1693 1694 1695 1696 1697 1698 1699 1700 1701 1702 1703 1704 1705 1706 1707 1708 1709 1710 1711 1712 1713 1714 1715 1716 1717 1718 1719 1720 1721 1722 1723 1724 1725 1726 1727 1728 1729 1730 1731 1732 1733 1734 1735 1736 1737 1738 1739 1740 1741 1742 1743 1744 1745 1746 1747 1748 
SCALARS resistivity double 1
LOOKUP_TABLE default
836.17474350334 219.5563005264 175.22857989894 219.11003204666 192.0535668978 519.4553270095 162.90330497632 216.96377891009 207.02113084562 198.26730556456 262.07568245233 277.36804158333 185.50486665225 198.60139545407 145.80618756557 402.31633582257 242.98133155535 214.3240285392 204.95754115512 195.60630995942 403.25529947276 414.72369389844 354.46004719158 217.58464691555 365.83024701192 260.31228448292 317.47390199416 237.57371532797 229.67619925721 441.25688442403 485.3320826122 315.74569826097 421.49678470456 439.0893084797 463.42009296972 213.11479137902 417.56174797345 249.76182038195 391.75688141379 316.59697226522 161.97420625285 504.56407087302 329.20112499252 203.41553083721 438.56535922171 640.51832403476 206.88631527103 121.4809878783 217.3279081358 718.20180213825 183.50980387097 261.53734852383 374.36695441816 784.82286660814 931.5740223221 342.85100854151 850.21268240728 372.49624597077 520.33894525811 215.4868728439 349.4873622312 305.32400384255 214.96963474354 343.80156505397 230.25086217519 401.18327871432 646.59981296659 267.35685761865 210.2214565811 289.20429203077 289.6456521432 2750.2780137465 472.88166337042 541.62037344075 286.50847170347 1016.8810911758 592.19670133453 170.91740394388 342.86369742429 561.27023879025 230.46457528735 185.23430509114 218.70320896843 365.25281980752 518.73055779013 200.75882408838 494.77265281742 654.31920980161 283.90456580008 287.43578721062 660.58467651908 567.83060891397 310.34163193281 288.71656688724 216.92194689375 428.55754037486 156.41444885914 432.04356438329 599.71707176717 244.67453518695 845.04495546054 383.732306801 916.36338137047 358.03613536912 454.72023997075 401.57516806142 306.28313950308 378.9883885786 733.76249223298 144.93207211471 589.98814067134 1120.4659992382 458.17439851569 284.27994922218 213.87195251806 2234.4081436909 188.47094139518 883.97625632464 366.80623700726 222.86712437175 232.80587976163 545.55226303614 942.45358824629 910.39356876405 1035.1413244963 276.95659427733 723.849013773 217.67129440418 1204.1275880058 913.80825475105 316.07463999428 264.17271650755 753.22545839827 2029.8234388618 169.99058431778 167.51290884379 708.54522464826 272.65364711961 205.28470895218 255.4396704231 447.77475533178 435.64978409192 739.30045822686 823.6211755135 378.71277465505 223.26685984396 442.38334539626 796.93490516598 655.83539560228 1220.0388501973 1010.4686066997 1298.8608140463 215.20707817691 1557.9723423934 171.84477892407 736.83526659103 1054.1663308799 221.60152836165 238.47974285173 879.57062619943 721.39626252457 162.76460163576 692.3106412698 387.24387541504 485.39682570646 204.3006785271 288.71490926146 619.60874385679 456.51302437594 325.82605636079 375.91581277049 490.05465449565 924.5079888459 242.45165162038 495.83414784984 298.86704211406 581.50634956082 444.47469026752 234.65492239086 613.07499018533 394.4931802407 485.48625267607 824.68879086189 427.74170883902 228.6145839165 594.87363626099 629.84484475465 551.37565737425 239.37260928744 172.25442418405 352.7066243943 296.58634812947 354.63714663049 213.82372606388 492.20287219229 467.1025353733 720.41224228798 511.22814825563 261.75049659644 475.37449388786 502.18086366642 419.43515212096 445.74356592505 256.54589209118 353.63739489548 497.65432597268 235.0826719547 649.52079764262 435.8204418264 130.41740388365 440.7653139962 423.86666880694 288.33933673881 626.49540327753 473.52880262702 491.47398035997 210.71881556017 241.54386736186 395.05062575809 393.86576666702 253.4320516036 289.33439273761 174.60824252228 181.99466744254 259.88833054325 308.22782412204 195.44334765725 213.24198227922 251.15143508851 237.34672540012 221.27492361263 305.18449716966 246.31614326871 239.34745735906 234.88445760699 272.42215353932 302.20494093352 546.53792326378 228.29239868215 313.59665474609 256.91047430936 294.22135902001 244.53131029891 305.55002840126 186.91277301513 321.40198378371 300.27581723524 200.88381818877 210.90803073038 319.36260089721 153.26904439639 555.8758122046 187.11455836886 642.44685693207 902.10481953171 222.98675624916 206.19303452563 446.87874979733 228.47121939977 233.06568259636 250.33910848992 531.93147430109 209.73420293895 1071.0331076899 223.27417158119 202.70682701916 179.07433228621 174.10064313925 196.98883774265 702.67829743797 151.26506562455 238.81288713251 621.98468547754 259.97659497838 187.02452823833 154.76406188486 252.72489830126 219.334685612 230.97451188891 225.47925071597 250.71971593758 189.62030974815 209.51465255468 131.51686178254 392.11500098302 252.21372227518 226.78046005625 348.20090035991 181.60342349442 230.63501895092 177.5724678799 201.41641842832 143.48999540075 497.82857168999 150.44821549059 184.05056982436 273.91850142554 311.27926283857 268.11233878424 174.62640989404 408.04559236034 212.4038828942 286.89596073232 232.24614979177 266.64180711474 243.12653476881 314.06273101066 272.70205724313 245.34019568608 164.24540095204 375.33062390523 510.03996989364 852.48277754202 357.64331626376 343.79372273002 643.33910651598 298.27165716239 461.53758135348 618.05163342838 207.57142268809 221.31731145891 442.71692221093 230.97543362886 328.65429720388 395.2537020383 194.50117577149 396.58039767716 299.928031306 395.17300951195 167.54324270662 251.74778111314 286.86816248171 355.13483285568 171.24052430647 241.00263668808 398.44939248633 344.68165838289 229.96250009492 169.16658605031 640.7963247189 217.70487109667 251.30745628646 356.77804688175 295.97038715767 162.46941038071 669.52965079812 243.3856288022 340.39776207357 362.02337912396 707.27882264666 220.77209062928 368.77651912986 180.5659799994 383.70589842145 401.75396308617 209.53366730652 522.06315319726 294.77998388508 266.73845735292 278.52930883907 472.04069076223 511.6246147788 350.55055741248 423.48958770079 211.70215627509 778.26990094823 213.86717119955 267.91680791066 512.55613610543 178.10902098782 598.97237502691 376.9676188603 177.47596644206 490.34254178714 206.99244311046 601.76344898765 570.7289003858 422.81140312108 161.38218238714 490.88353848014 638.95243460521 607.6618815286 521.43089827929 304.95012319091 247.18083445131 464.21632012166 260.97413033401 168.20298732606 670.76379147782 318.30632295056 277.22097852585 154.41108139731 429.74113770795 158.8245922633 355.2813810042 170.26686547581 235.43662151554 341.24850623522 219.28249119022 233.14417853169 204.99824426663 406.07531718522 522.68409444969 125.41349314493 225.92983575521 384.0215298602 272.83635447403 176.74013444337 236.81683495642 200.07375525077 568.50812995115 163.99688295673 299.93515060618 1132.6786401466 706.70863639119 191.90259198588 277.00854242751 238.14998191534 220.29844056923 467.86020481618 195.49446846882 223.30832775496 298.97123362587 283.4147885517 353.405460861 295.23390010366 244.24311451396 304.13487826763 265.68887889608 204.80544184808 168.42755901694 182.89668079024 194.00507610014 242.20203308413 345.80677028771 216.49312378972 319.12715914664 180.7842734765 258.46948157374 316.70522438494 1593.4129536499 222.95539028155 235.99395118478 304.79265475422 264.68290728542 263.33871297449 293.47693200953 228.4704788873 272.39879170903 557.97404993052 389.66456725987 451.02717065267 259.7948729596 593.20509541733 450.27298184416 244.08256598465 218.00237467889 184.13433506897 232.01023892334 255.2635811163 235.44602746671 263.76867072128 278.65299213231 202.12897397824 328.61931530146 173.66657520656 225.54202745214 227.91636597922 175.26654175561 197.95272199616 337.9794885062 229.79813337765 426.68286313123 398.26580073244 328.87886201076 169.2639052823 567.17123039738 250.49128272453 380.25075321056 519.92832281346 185.26008970141 211.99240369712 619.52495632585 315.99989367585 465.39501804763 612.73770607161 180.00587225708 235.93656515799 260.99155609302 266.45160096874 267.26469834516 173.25989579357 234.12304080878 223.26113896731 247.02778421378 215.54660819417 241.31473687969 186.8094189684 225.46142563716 277.296423028 251.84247794475 164.30322019264 159.18784404923 228.19479121059 202.85277314258 263.76237766499 229.77999198309 219.26058979388 235.13728714048 315.79264895742 273.77760703327 528.44237029836 209.76968702297 212.633924545 210.80667722183 231.94693849774 239.60137194496 256.43564071658 217.00455592135 211.88340312753 205.99155003857 187.24995561221 212.06192478366 211.07056034523 203.74591353782 240.74099809851 156.16789877849 223.13370657692 283.66457344413 685.1521805394 188.91592240608 192.10695657741 176.12666876022 184.4891061928 201.42765757765 209.77865042311 173.5224519967 370.42018115765 281.99382918913 251.19872104387 230.68788078094 138.82631604876 205.24002321984 166.48200114816 181.47901767986 152.70537657498 164.72177565802 328.93237599324 227.00260741898 209.59412101487 192.73950610299 221.07947100249 263.4341937156 210.72543243812 134.71232929299 196.55796970491 193.94049519195 206.41427293678 240.96078388968 559.45541913374 145.37949574667 375.12123966204 250.76088361436 168.48807709689 180.38856715327 180.44785334057 185.48527409452 167.25377554987 160.42739087903 217.52177106796 210.98394317863 221.20303481832 203.77746669433 230.67845090141 171.81034198141 613.43958949664 371.53948050963 204.21353864096 191.58436138758 123.81358950163 156.68148630869 309.06224354336 352.18308287458 152.00897323794 164.63492315839 268.4055929275 190.12283999102 680.57489557481 196.10897745787 185.5134631089 381.73128348259 211.32232979844 202.43189218097 383.43969513007 237.51511593149 767.26182854916 194.42337854289 179.7219007168 167.34389501803 163.40852125924 156.62263427749 204.28208683508 147.95161856544 206.27213822718 274.61771272003 217.34506352365 176.53536512775 212.68065389546 181.33048955825 673.9147824571 708.68508538966 224.43316581687 259.08129511196 245.59595991561 225.23044460126 557.12742799604 325.72277594141 181.79775513946 207.09087442029 172.06733653654 561.10054659949 998.39385403063 229.01023939851 562.72235057329 216.29023354348 232.73821785029 201.4719576018 137.61100372684 192.18003828895 188.08924704127 634.35489174457 201.08759448591 219.02847274487 208.63214948292 178.63232349734 216.54494499806 202.90131239249 152.26245886686 176.42077489875 207.46781840744 140.51939249859 218.77583490965 191.58315365331 211.63753473295 121.51865936324 170.18193358135 282.33838403511 149.89724705153 210.60980447998 787.94246950661 203.00249740968 189.33879743693 165.63441504543 154.98860727565 212.73410467798 142.85778779696 201.38543318847 172.859295172 148.84299930117 164.77719513494 144.60041127154 157.11715968298 145.12059042558 162.90562345569 198.75968950562 154.39822991677 155.97060988829 148.76452308528 156.26426207708 165.70386158225 147.11346150296 263.98215233305 184.42565238341 186.75402865389 565.96685981306 583.17027895046 220.5622143964 155.92460510582 155.2640315464 133.36688105834 145.68295712867 150.32805853456 183.96906790564 125.13665882197 134.38270671136 440.65171270891 200.91794761136 168.08946675379 191.99865702317 205.39577521345 183.61920935277 126.49336017134 168.93087909595 193.89507508854 186.10427623544 268.14546812211 188.00675361857 238.46319869118 203.26456669755 166.72076540064 152.68581937116 164.70147626854 173.59215349316 132.90328053105 160.70619350099 179.8705409982 189.46709278186 821.09636731684 195.25235742115 1157.1599347264 396.53815241146 134.88695648707 160.45440085579 163.62757810072 170.28730381301 167.75057069719 140.57635985737 155.29499625185 202.82922493386 172.70426756044 166.10885570271 309.34579629979 199.33337102732 157.00070531322 192.49589580445 127.53513381976 134.2544641974 162.67479871429 149.6511056016 151.01859784936 183.26460682384 187.33302492739 168.26451831911 186.65522727671 157.55979734961 160.49415581909 139.69017045279 185.38453169664 138.32161022523 144.67880576396 111.28707175584 111.70004695766 260.48865593102 442.01946158636 252.98161978374 488.33573751222 599.92325801083 433.396841015 634.22471622344 590.30837310056 1018.1506835404 473.35109543996 521.39424042682 444.98811870114 367.7141958904 511.65177205347 161.0079421235 169.90895508229 456.99030159227 228.7807648034 347.61451177417 85.991947159428 157.3974567653 148.14823426062 112.4800412287 135.69556727592 405.24247777488 114.16110526024 146.53572564333 153.90855108655 182.7127292255 195.77124580791 206.30455162551 159.26938330325 182.88309097448 183.38703053848 143.4589322405 106.24450679223 177.66465424239 153.05627618672 126.47749320273 225.92277350928 136.07109498806 159.66393435782 199.70751681126 156.83045479329 130.83656827989 160.10162317247 140.78427039831 167.16832528418 300.28934423808 226.10656576248 384.05428972263 182.63246448008 273.25014063808 330.76358395502 480.24697853574 342.662551025 489.95243244851 346.3664125758 268.89919243572 430.68914737009 475.97702160629 503.86440839783 539.13538602697 514.05807563955 209.50275400002 340.38727632145 148.26677573088 728.3696459276 475.62052793145 448.37223356973 1397.1464254218 602.88377146841 1242.096108381 1137.9744897387 689.5374624603 435.22262789877 686.38148961679 1406.269120521 557.6698556039 374.04078275201 490.33537302896 448.94606920277 483.97680215449 462.52901853261 305.92669662359 308.05890873949 386.82860973236 455.16746692506 373.65426956031 403.69368206603 349.61923244203 679.32717586663 229.12264956656 1029.0908586275 621.98918885259 152.70980023565 177.86564917843 111.73241523953 87.008675223755 137.79413619788 152.74332696658 200.23248021605 103.69922545469 111.75783191132 152.58327377089 224.86942124002 168.34021477216 218.5538568028 283.97970758399 196.87693066339 388.10522254259 337.60829193245 157.26429929035 159.05108622469 606.72390348999 418.41964169404 522.77083761226 388.73834010906 434.10265084282 494.77572805041 175.60214037807 401.75631349211 602.34016994623 598.68626493228 471.29540494057 387.71619640319 258.60638240433 608.49312996404 383.06750793596 705.32176444565 534.35706452071 404.81337420694 327.76111024246 347.35683855229 850.8156753335 729.62555068081 1153.5290511437 879.53238206484 823.65595025486 938.41067542606 682.05195752207 762.86885281741 1029.9166276386 690.2453318009 1307.8556251741 391.08945174175 535.94588328133 447.57164433022 420.31323516577 408.70574358416 407.69004165433 480.63840883476 503.57522563077 419.0669246708 484.17129359979 469.04993970807 300.02693107693 353.94986308462 496.20429398508 438.47291376568 482.74819466504 398.46326772291 413.5097189003 478.49273376176 380.24580994375 86.945076605145 167.44919526922 161.804856351 146.80944743987 161.98010702575 264.28398950208 256.02982758651 269.37176182578 297.3158723767 420.01345231203 385.75764542875 201.83826433492 210.70017922799 571.53697486032 354.96020165463 437.00036775301 295.7720596642 333.07257905055 377.73879079994 464.59425653863 465.29886691605 428.77499124905 475.82526053813 442.3969869624 164.46083696501 223.03564934586 325.07035436313 241.06243427619 300.26693402174 475.8675242411 500.96931735977 754.39057296058 792.03115565739 1068.9409792611 1113.7677903251 483.66912165363 364.46299786636 467.998821035 338.43191391533 354.5669733766 327.95221437882 465.27823345449 423.71970224339 345.70943354926 317.50837794632 484.2486104397 315.34663149986 685.93529999876 506.23948925445 149.20303316864 126.10518007065 275.44330621571 333.52268275824 472.52357390362 331.9675961065 470.07550223249 459.85330955816 430.34713019607 376.46284044015 230.07238285302 180.18232860396 430.54727762005 135.29068054301 985.12490462477 516.42052929466 1151.56125227 861.98708785348 444.39140711164 353.23960689704 480.64988563639 435.14540811666 493.98262388564 462.72643100067 111.05597883135 131.40398055694 299.70427835505 181.6112431363 478.11032595796 485.56279708892 496.93645234077 431.38881206468 670.02780620719 872.89694607195 1282.2927692288 999.78606357833 181.64330564915 124.0330212576 366.71092446011 348.3994765091 457.5302071367 488.2278477174 1134.0516905487 258.63659510071 395.84484107264 328.78597558883 438.67117983063 872.27586024267 157.48243424624 150.55419932616 167.28566819988 125.72974805478 183.84493657246 165.19472989652 211.7869976047 139.75556092376 159.07133296387 193.22143440365 219.34950554499 234.58148300654 870.07765418214 1292.6770660453 860.14360878091 361.61584219828 211.81227589944 241.04256058771 213.3978622883 192.0746574798 182.44568137231 85.764426180285 64.994440311054 177.19658501961 232.73737349638 180.41286167901 219.79938347742 124.40299117892 208.4435722537 871.67322930249 624.66110571392 423.78538489811 2022.2202413882 739.7192197329 327.70988179938 436.86378159786 137.04124761756 226.05378914948 134.33097261626 165.26979154322 161.96995879093 329.37767337753 360.62472461363 678.69233611669 568.33963320031 472.08774488215 451.20000493529 282.24327806301 304.34394248911 379.45148578434 589.06962336743 363.74441688825 248.33022430525 138.34101647068 206.8258488742 342.74657690787 424.38344867082 400.05119246962 454.42499507033 290.6426560306 125.81961247066 527.51744103146 489.8717902491 159.95593610723 154.63017975376 452.12175730084 120.19340338455 390.44647233118 325.23763248499 222.06298702716 160.31626475662 423.67924638096 490.80355179002 548.30385398036 526.34381676788 108.73852165947 143.92064123904 232.61907834848 190.64405637807 245.75769035563 207.38123335922 227.53900485293 264.93585895452 188.23993668168 186.7793705192 220.53851429332 134.98677034814 217.2171981346 239.69020842433 142.47455110467 134.63272928639 225.92492929889 112.74388756547 955.16502703582 752.63248924308 1361.937995618 357.75274995618 335.23342627556 459.42199337179 478.76175863723 966.92329410756 202.90759180453 1187.1080974753 509.45898339253 797.99862411736 1421.9521856441 920.31019444069 1014.8302525099 896.38705145453 237.83906462672 118.81832779728 373.54426456307 291.38888538295 413.72334337437 390.39087498826 830.54770339787 209.00318439698 357.96848108076 420.07797843784 532.33008869756 562.16838905836 367.26060184767 460.01827194747 711.17349523476 389.84940326923 181.74682866236 162.24624725126 394.09764906325 144.43200798581 385.36975452426 560.61880011532 406.79639626929 639.53312052357 166.39192726297 716.5629570337 110.96171437516 152.11215522324 629.49849196366 461.89514996116 441.56685325469 502.6161193248 245.26250142429 211.07675135116 372.33177153509 240.4336184884 156.78634303978 179.3398407517 117.97513099418 119.60173838864 167.77379030199 250.29988580126 347.50658416982 492.79524567333 897.33779329268 305.87815440452 169.54988903208 896.56859989155 602.77814226984 573.96687692037 792.52775384643 443.58238728419 468.31686120034 902.43831857212 382.79537939993 515.28520558229 325.39428204299 988.33854145911 285.97821847802 392.84111315177 409.53119642059 516.74167361861 151.12918280079 171.13030879056 325.83058006357 224.7276261542 181.2931356746 461.08046939923 244.46441352604 252.77180818346 164.19044998882 239.7686644161 497.36623920947 582.00739181279 1148.13709097 1390.9160862056 1443.0779840531 974.15002349646 533.08414144561 782.1042884081 838.23469775072 1026.2002494335 421.37966722573 287.67113645035 332.73432677257 409.8068382527 183.82574942961 186.65739206666 796.47106596444 572.87144263009 1028.5365660073 1232.2725185898 475.28349454375 1218.2974474442 335.06643646645 1159.4925058407 805.55312458472 206.37144740035 511.233777581 879.79361418361 975.87592899779 529.39971218079 226.8696903761 850.58233663344 860.14766445047 569.74719253312 808.79608395825 894.01858842753 933.06297785334 1177.8315922202 766.45357163603 923.91053335939 849.99568211224 191.71173161441 418.0096423121 172.61848898414 478.34608410553 135.15303774557 157.3601492998 502.20570926791 161.7816197685 191.19981022441 131.13850955474 122.11742004163 121.11169673393 132.08152493747 254.79712744509 553.36458299816 618.62088874627 186.73660889988 189.94670604895 478.90793448389 760.07282083496 332.12044656938 760.56747784113 322.42651516958 175.15533154379 370.48154781889 629.78646663039 115.18923203938 238.31635321151 139.89814823823 506.53304762101 121.57242184816 133.0575001911 156.35010470012 170.33969419242 527.70665852897 518.39918504645 225.20777998658 649.09190377095 213.10268852624 274.04760111896 744.79595814278 356.54961349887 409.83091990578 462.13514840894 427.34446483608 666.70920802172 197.55250201283 726.65642012653 350.3135103176 551.10370413172 661.22025736708 194.48923257516 189.71035451189 289.09558166614 250.39384469764 343.40636143475 479.17453948906 314.69684855933 616.36998362934 530.94913754265 386.25603900602 314.55980495879 339.54942620911 192.69643981205 237.41649619777 206.29150008675 234.87815752888 662.2176792152 351.27766626695 1334.5035334338 868.1057206595 499.07449936903 193.51845750577 164.8324816737 144.58989979773 197.2650893994 187.60996608152 129.69591387217 171.55718167618 120.84918424637 577.27550484721 384.23839545514 115.34749733596 88.399788517051 104.26508082896 219.00977371511 67.531638919016 67.448745911689 201.75435101205 237.50725152615 326.52255278776 349.74058928531 656.77253351558 443.42797417641 747.20917229583 667.31633293301 217.72402964109 228.73142859225 160.56954329446 271.56370302492 60.423759499856 77.520305667864 283.88569219971 234.97247055209 1026.6330317459 970.30367522798 630.48658398053 537.85264336429 780.62124942962 883.85922899137 514.07141334236 380.49091944364 440.64405222485 437.8009249535 663.11312589158 781.51905756553 1085.9469630707 1627.7218273406 362.07821908932 445.93141541378 141.83871449811 135.46419647293 362.07993457605 415.27155991791 228.81638541879 1328.9044761692 161.60841718524 181.09902648675 157.82403121553 643.97396079453 171.81950783321 164.46583489147 181.64130574853 344.78399401664 459.06291085497 384.853260442 171.45018021301 892.18617682696 402.20346330641 330.0455104731 231.03671201612 726.67225403117 219.46662258426 46.493779777307 99.739831703643 367.74207527565 248.27536052741 314.63323772293 656.25026124089 752.96798145746 332.82613203145 117.52108137288 558.65658918468 197.15984194411 221.90799524766 169.26224942201 253.30044385543 227.62055578183 252.59451919118 341.59475863039 374.30561517992 618.8438910118 437.67760315469 252.1197624751 389.14126365726 250.56065447429 243.59815945942 624.03789092543 215.27677513093 438.27800727974 178.35705956535 125.93109546646 214.34367212104 582.34265772879 195.11063278336 797.27580751973 455.15556954805 680.38211878054 559.69409759132 686.40891828773 857.30656600555 672.41115763519 529.33393850409 188.85834279741 206.76759982367 90.480347612912 89.01154204233 195.91691821697 226.81293386049 1400.0778429348 999.09299975689 672.33158735704 1416.5775331712 327.47472254897 319.76022453602 197.7998372954 436.54825439293 400.22683992555 497.26096929256 264.7331833486 594.93223410587 251.45755573686 171.23661475137 848.79583491429 487.81458970351 817.39908256088 347.42941280357 177.30482703635 249.44077240954 349.94290032184 374.48145204027 234.44312686501 118.54211302803 60.796100480756 99.924805639057 102.98589188204 168.90753359388 56.838735201636 54.841192274181 936.9666243707 1794.1833704681 1384.0510748311 547.47860572447 471.52239176115 366.63588201113 338.3055898815 810.42368032432 900.68778223185 461.04122519371 793.47628998781 116.55588937736 52.065691851514 499.94651492967 944.98766327926 173.05586238674 67.716780184171 1587.6601873008 1704.9938796498 1260.6093287048 1638.2610549341 614.29504828266 509.67346081212 565.9322771419 817.84552915149 276.38977109067 270.15340640533 288.92725429342 251.05299450545 558.92615339983 513.8708803677 194.87360757737 77.434551811106 395.08249216357 568.60997268727 619.3267660803 693.995156044 197.64536408078 125.24026185904 232.25798659919 116.74182858777 133.44800560991 110.52467753162 187.75246291616 929.7438938148 1653.759628126 1823.5050694824 175.79867195552 123.46028410946 127.38131829071 68.79663384182 675.27986939532 250.73344458047 415.6290659854 280.34491350469 120.08288969241 113.86563370233 116.14295485724 124.82341600488 1788.1627450537 1963.6916691606 1497.4966237039 634.49292833091 753.24382630316 704.14789773398 278.98767063298 268.84865851163 74.101062718068 194.27772531825 102.11847181274 128.52781237865 191.72525515601 388.47449012683 130.84476779452 505.71545727521 1015.4620395464 141.63622378573 114.89590769389 160.73061063716 712.56735776402 873.04196827589 739.96904577244 779.02603257785 831.93227429379 713.5630667846 1340.1483565047 979.26187167755 1159.5860258128 642.85633622271 30.147133141007 201.19503425056 211.24336541983 240.73451788674 811.40587283737 547.81352103021 134.92049092778 199.45733077645 87.360015773323 180.90494960586 85.830574525102 153.99261648665 402.65311171376 907.1894702871 384.50289460131 137.37908816272 110.58795102436 168.70857708321 211.34315289457 47.59809187435 258.24918590739 486.57594322248 75.012519932762 113.44612801538 515.99411227216 119.87776484668 158.32052948046 266.18382407518 1700.8401898757 1704.4084716081 1215.5341329425 437.45544060471 1334.0704501217 1120.4099773475 153.62804067437 529.28967234945 185.77977257868 102.02892089704 200.65712183786 742.11987592248 151.26660634893 120.65192279008 240.36690252583 44.555881547565 150.38098113868 30.887579944691 1130.3824568717 139.32516401347 169.187615807 190.57622564129 94.235016211596 147.95597966492 837.97115771517 231.92808406469 86.383217177956 272.39035206383 90.331866418064 31.917761827105 201.18744258007 66.097919928373 162.24589235007 98.540980746351 52.68399428912 143.43484993259 2095.3497743711 2077.6578126283 3442.1891692944 1341.6307447717 3331.8804343093 2497.8469371752 1806.9026194584 2357.3360061201 513.48980319909 389.89083292533 453.54192442011 159.71496926499 260.47232833913 782.08444395396 5609.9177098812 1171.0920828296 285.75177560424 2087.4454394126 129.22840548968 85.956123797409 895.5970895274 1395.8258652507 124.39078509879 65.877451553574 129.00914547855 96.753812605073 101.31529656752 125.5598242997 110.60287966453 34.145596981857 56.522322117594 63.703654902962 47.714361790946 59.404594452937 42.446675256434 58.443386898525 688.93400907221 137.49528625141 60.707392750386 63.116643840284 146.22298220867 54.437427449608 71.481762331986 66.46090508283 69.584540330884 40.696888682801 1153.0147615815 1303.3244856765 731.79724766976 786.05397000942 256.90728841316 109.18281298324 60.416858673338 176.33153701072 45.091767010471 42.936201503421 48.63533542023 61.031332973638 171.11943262907 139.11136876281 687.08560766535 279.23592965484 905.38553480149 447.47752175495 146.47175865172 143.69604338303 105.99205250386 113.34427376977 498.99022765247 156.78965731994 274.21176271278 267.45384284902 1443.3228646934 63.524102179697 315.1307807305 127.19434536661 4165.6385964459 1374.0352467095 1740.826044964 2862.4834527501 1862.5836178176 1654.8334758906 2245.7330582701 4045.6318286395 4741.117404092 622.15728058263 2488.347037173 1835.8701519013 5488.6208537602 446.00582379467 52.262018614761 62.587366167796 253.27423871284 668.87406351675 90.589835396056 166.19642333031 2194.5510480333 918.49813430907 599.35670518404 1526.1713891318 162.86332209419 94.978525253151 2475.438791999 7898.2759515778 451.50688036685 594.62395128749 513.01112079879 1374.1626174283 6546.7610943992 5727.3505763925 5739.1057072554 417.68978020912 3148.3308812438 6452.3918641034 550.31088236588 496.11046201135 299.12863525659 70.942339222535 1466.2371737161 158.48405542844 7627.3967332362 153.62136797196 59.31491164815 7562.1795153215 8054.7289206981 6768.3439822362 50.537186115001 852.93496167674 1481.5713066031 134.65321510984 4251.2544309089 3110.5920017602 775.77555464236 6888.5326058581 1087.9101373518 268.51310799391 1908.4024450132 2352.1732011405 5447.6111683752 3303.2824261059 2879.4959846182 4561.1146509287 4051.0574643999 157.03509942311 96.308831648647 155.09198506315 2042.3739431718 332.542106247 1219.9037921463 6076.4168733992 5844.7420279019 
POINT_DATA 1001
