# vtk DataFile Version 3.0
d-2__ created by libgimli-v1.5.0-1-g5991b6ac
ASCII
DATASET UNSTRUCTURED_GRID
POINTS 197 double
9.3328014531246	-1.5326571162722	0
10.634220169783	-1.180136545387	0
9.5404759178115	-0.69734469398533	0
11	0	0
11.607443454992	-0.64708784085886	0
8.0624749304763	-3.5191658998695	0
9.0923706794519	-2.609344617413	0
7.8757182234122	-1.5206275545654	0
22.552266427558	-1.7391005946448	0
22.538632280246	-0.81356140472867	0
21.539192747338	-1.149139631733	0
17.344919951811	-2.9850030544512	0
18.921533001455	-2.3909626551309	0
17.805794397065	-1.7956158861547	0
7	0	0
6.3525512081074	-1.0897967283359	0
3.3822232917587	-2.8793194347953	0
3.0524201673282	-1.4138605261053	0
2	-2	0
32.928853973852	-2.5420530231774	0
34.378477339379	-2.2041585232274	0
33.529483193509	-1.1435637333815	0
6	0	0
5	0	0
5.4572967426336	-0.7246650956589	0
15	0	0
14.474835299465	-1.4889957928446	0
15.792758996485	-1.0910693128498	0
20	0	0
20.507742604288	-0.83296966564203	0
21	0	0
8	0	0
38	0	0
38.512621555447	-0.84068907730832	0
39	0	0
45	0	0
44	0	0
44.563028294334	-1.0197358638406	0
12.3610242235	-0.61716779906033	0
12.044365885028	-1.4214236248242	0
13.156287972902	-0.99469560206077	0
9	0	0
8.7465440361859	-0.75521000371671	0
43.598817323508	-0.9320831291535	0
37	0	0
37.578496026427	-0.97143557764381	0
14	0	0
30	0	0
29	0	0
29.565336354581	-0.80407216278388	0
12	0	0
13	0	0
10	0	0
16	0	0
27.48349930911	-0.84891882443368	0
27	0	0
26.405804436123	-1.2166404686788	0
20.424479577382	-1.9697285041208	0
19.556776124371	-1.037432034257	0
6.4829981009126	-2.5836234518579	0
5.3397573872499	-1.68652883545	0
14.452453765341	-3.2546357409441	0
13.057015971702	-2.4032356380093	0
12.753553867167	-4.5343751791629	0
36.939919481781	-2.0877857114946	0
35.674796996228	-3.2394760292532	0
37.72678408999	-4.0834326181727	0
18.46160078132	-1.0193406967755	0
16.614140012583	-0.73242369084935	0
15.842041861728	-2.6267886826739	0
16.811614786909	-1.6862546748307	0
19	0	0
27.467332736636	-1.8403034989487	0
26.483417149306	-3.0858621272995	0
18	0	0
16.129168121888	-5.2085761596149	0
17	0	0
17.452093442607	-0.87437574603465	0
22	0	0
28.538280910021	-1.183807895762	0
28	0	0
23.372852161212	-2.8874121213776	0
23.578051346698	-1.1658628293825	0
35	0	0
35.599958959314	-1.3354971077783	0
36	0	0
31.305606252808	-2.3544796107752	0
32.353262467844	-1.1757149599203	0
24.951505720135	-1.9234631594057	0
30.413534645357	-0.88427738323201	0
31.30453753305	-0.99627480860258	0
31	0	0
32	0	0
26	0	0
25.392537445372	-0.78528363527887	0
33	0	0
34.505529481025	-0.93731748747844	0
34	0	0
29.843110532054	-1.9354559932389	0
42	0	0
42.475235224095	-1.245095554695	0
43	0	0
39.607035982227	-1.2102202258007	0
36.630281923699	-0.87874758135483	0
39.668802157877	-2.9637022970297	0
41.039994029283	-1.8817229177316	0
40	0	0
40.619066677366	-0.77306243752721	0
38.348280293731	-2.0246753793294	0
42.27134817246	-2.7376601354282	0
41.170638452783	-3.4740744164843	0
41	0	0
41.429691814017	-0.77908574458547	0
46.783401393837	-1.0543889167005	0
48	0	0
46	0	0
3.7676875059424	-0.80871768736632	0
4.6195952318689	-0.83655622069288	0
4	0	0
45.635451756065	-0.97975332137447	0
43.944719070304	-2.3998103205558	0
46.277238625392	-1.9936388274139	0
46.60017435431	-3.1326824200363	0
48	-2.3	0
21.710952248424	-2.6700203243832	0
20.272511635257	-3.7226136940212	0
24	0	0
23	0	0
28.358394715486	-2.8343333793675	0
10.121476206918	-2.4047591586604	0
22.071734001547	-4.540615850383	0
30.724018240953	-1.5461227764953	0
24.58960774036	-0.77793386227173	0
25	0	0
42.714910744579	-4.6915019115726	0
45.177712543809	-1.8145818675732	0
8.4788725620031	-5.8259193331268	0
6.3509071275765	-4.5551729597812	0
10.108797019013	-3.9920433157771	0
11.453400080779	-2.6608941687875	0
10.818752860115	-6.2999450529019	0
9.5163635545762	-9.2521132636944	0
40.08221450132	-5.1170857480968	0
37.839201298003	-7.4620250090898	0
24.827104881646	-3.5399336747504	0
44.854252011399	-7.0172391821422	0
48	-4.6	0
45.265524265463	-4.0862383665116	0
3	0	0
4.1855676013636	-1.7862919058195	0
4.9718595551737	-3.081572281459	0
2	0	0
2	-1	0
27.812378926683	-5.020070829407	0
25.440823681353	-5.185232765607	0
23.807744835936	-4.5913883653231	0
18.522807305889	-4.1773310491217	0
29.936968147258	-3.9203344146322	0
31.936243809593	-4.3288120807876	0
35.393870807591	-5.7065368859787	0
33.925262344587	-4.0192811427942	0
45.454824135682	-2.6847449565466	0
2	-4	0
2	-8	0
4.1174866211924	-4.9735071158645	0
41.311428894876	-8.040549934177	0
48	-9.2	0
6.0206706428341	-7.2985674695674	0
23.281348150066	-6.790915365116	0
33.119301156365	-6.0884087669474	0
5.6695958591794	-11.147639356482	0
19.903713068084	-6.555184091726	0
30.290075676722	-7.0327953074249	0
33.970340090435	-9.3503538870403	0
13.230564769087	-7.859830587246	0
25	-18.4	0
22.073934454967	-11.799030919445	0
19.25	-18.4	0
26.313274990444	-8.0521753667683	0
38.491355466221	-12.479667308981	0
43.818927507256	-11.489315248963	0
2	-13.2	0
16.933709856141	-9.6286036362756	0
9.1633562869337	-14.079278546409	0
13.5	-18.4	0
13.226583843971	-12.224431275137	0
28.877561905081	-12.464945658393	0
30.75	-18.4	0
33.719967219731	-14.218948200151	0
48	-13.8	0
42.25	-18.4	0
48	-18.4	0
16.998064903802	-14.091173238126	0
36.5	-18.4	0
5.316611310737	-15.045733019653	0
2	-18.4	0
7.75	-18.4	0
CELLS 328 1312
3	0	1	2	
3	3	1	4	
3	5	6	7	
3	8	9	10	
3	11	12	13	
3	7	14	15	
3	16	17	18	
3	19	20	21	
3	22	23	24	
3	25	26	27	
3	28	29	30	
3	14	22	15	
3	14	7	31	
3	32	33	34	
3	35	36	37	
3	38	39	40	
3	2	41	42	
3	43	37	36	
3	31	42	41	
3	44	45	32	
3	46	40	26	
3	47	48	49	
3	31	7	42	
3	50	38	51	
3	46	51	40	
3	38	50	4	
3	3	52	1	
3	27	53	25	
3	54	55	56	
3	57	58	12	
3	46	26	25	
3	59	15	60	
3	61	62	63	
3	64	65	66	
3	58	67	12	
3	68	53	27	
3	69	70	27	
3	58	28	71	
3	58	29	28	
3	72	56	73	
3	74	67	71	
3	61	75	69	
3	76	77	74	
3	67	74	77	
3	78	30	10	
3	70	77	68	
3	79	48	80	
3	79	80	54	
3	58	57	29	
3	8	81	82	
3	83	84	85	
3	86	19	87	
3	73	56	88	
3	89	90	91	
3	10	9	78	
3	84	20	65	
3	91	47	89	
3	49	89	47	
3	90	92	91	
3	79	54	72	
3	56	93	94	
3	87	95	92	
3	84	83	96	
3	11	13	70	
3	96	83	97	
3	90	87	92	
3	98	49	79	
3	21	95	87	
3	99	100	101	
3	33	102	34	
3	85	84	103	
3	102	104	105	
3	85	103	44	
3	34	102	106	
3	102	107	106	
3	45	64	108	
3	109	105	110	
3	111	112	99	
3	100	105	109	
3	111	107	112	
3	113	114	115	
3	116	117	118	
3	15	59	7	
3	35	37	119	
3	37	43	120	
3	40	51	38	
3	121	122	123	
3	60	15	24	
3	111	106	107	
3	43	36	101	
3	0	7	6	
3	112	105	100	
3	41	2	52	
3	77	13	67	
3	24	117	60	
3	24	15	22	
3	4	50	3	
3	39	38	4	
3	124	57	125	
3	82	126	127	
3	79	72	128	
3	55	93	56	
3	68	76	53	
3	87	90	86	
3	1	0	129	
3	130	81	124	
3	124	8	10	
3	80	55	54	
3	67	58	71	
3	9	8	82	
3	64	45	103	
3	32	45	33	
3	21	97	95	
3	90	89	131	
3	132	133	126	
3	33	108	102	
3	94	93	133	
3	73	128	72	
3	108	33	45	
3	109	110	134	
3	105	112	107	
3	100	99	112	
3	44	103	45	
3	64	103	84	
3	101	100	43	
3	135	37	120	
3	121	123	113	
3	121	119	135	
3	117	23	118	
3	24	23	117	
3	136	5	137	
3	40	62	26	
3	0	2	42	
3	1	52	2	
3	138	63	139	
3	39	62	40	
3	140	136	141	
3	142	66	143	
3	10	29	57	
3	94	88	56	
3	48	79	49	
3	77	70	13	
3	69	27	26	
3	70	69	11	
3	132	94	133	
3	26	61	69	
3	10	30	29	
3	86	90	131	
3	88	144	73	
3	78	9	127	
3	77	76	68	
3	96	97	21	
3	67	13	12	
3	69	75	11	
3	82	127	9	
3	102	105	107	
3	145	146	147	
3	98	89	49	
3	104	110	105	
3	35	119	115	
3	121	113	119	
3	116	118	148	
3	60	149	150	
3	150	59	60	
3	7	59	5	
3	7	0	42	
3	0	6	129	
3	148	151	152	
3	39	139	62	
3	153	73	154	
3	4	1	39	
3	139	1	129	
3	82	81	88	
3	155	144	81	
3	82	88	132	
3	12	11	156	
3	62	139	63	
3	89	98	131	
3	27	70	68	
3	126	82	132	
3	157	158	86	
3	88	81	144	
3	159	65	160	
3	20	96	21	
3	157	86	98	
3	94	132	88	
3	157	98	128	
3	57	12	125	
3	142	134	110	
3	134	120	109	
3	66	108	64	
3	102	108	104	
3	81	8	124	
3	135	119	37	
3	152	17	148	
3	17	152	18	
3	116	149	117	
3	116	148	17	
3	138	129	6	
3	139	39	1	
3	57	124	10	
3	79	128	98	
3	84	96	20	
3	120	147	161	
3	119	113	115	
3	109	120	100	
3	16	18	162	
3	116	17	149	
3	163	164	162	
3	149	60	117	
3	17	16	149	
3	149	16	150	
3	150	137	59	
3	72	54	56	
3	129	138	139	
3	21	87	19	
3	155	154	144	
3	98	86	131	
3	120	43	100	
3	110	104	142	
3	164	16	162	
3	150	16	164	
3	120	134	147	
3	114	113	123	
3	134	165	145	
3	135	161	121	
3	161	122	121	
3	120	161	135	
3	161	147	122	
3	147	146	122	
3	146	123	122	
3	84	65	64	
3	124	125	130	
3	166	146	145	
3	108	66	104	
3	104	66	142	
3	167	137	164	
3	150	164	137	
3	19	160	20	
3	19	86	158	
3	20	160	65	
3	73	144	154	
3	125	12	156	
3	154	155	168	
3	159	143	66	
3	134	142	165	
3	167	164	163	
3	6	5	138	
3	158	160	19	
3	169	160	158	
3	81	130	155	
3	168	155	130	
3	167	170	141	
3	75	171	156	
3	11	75	156	
3	125	156	171	
3	169	159	160	
3	159	66	65	
3	158	157	172	
3	143	159	173	
3	130	125	171	
3	140	141	174	
3	175	176	177	
3	171	168	130	
3	153	128	73	
3	178	154	168	
3	142	143	165	
3	165	179	180	
3	59	137	5	
3	137	167	136	
3	168	176	178	
3	181	170	163	
3	136	140	138	
3	75	174	182	
3	172	173	169	
3	165	143	179	
3	183	184	185	
3	138	5	136	
3	62	61	26	
3	75	61	63	
3	157	153	172	
3	172	186	173	
3	172	169	158	
3	128	153	157	
3	154	178	153	
3	172	153	178	
3	75	182	171	
3	140	174	63	
3	186	172	178	
3	169	173	159	
3	187	186	175	
3	145	180	166	
3	134	145	147	
3	180	145	165	
3	136	167	141	
3	186	176	175	
3	173	179	143	
3	188	179	173	
3	189	190	191	
3	180	190	189	
3	189	166	180	
3	182	185	192	
3	185	174	141	
3	174	185	182	
3	63	138	140	
3	183	141	170	
3	176	171	182	
3	168	171	176	
3	167	163	170	
3	188	187	193	
3	75	63	174	
3	190	180	179	
3	176	186	178	
3	192	184	177	
3	194	195	196	
3	184	192	185	
3	179	193	190	
3	194	183	170	
3	192	176	182	
3	181	194	170	
3	176	192	177	
3	184	183	196	
3	185	141	183	
3	195	194	181	
3	183	194	196	
3	179	188	193	
3	173	186	188	
3	186	187	188	
CELL_TYPES 328
5 5 5 5 5 5 5 5 5 5 5 5 5 5 5 5 5 5 5 5 5 5 5 5 5 5 5 5 5 5 5 5 5 5 5 5 5 5 5 5 5 5 5 5 5 5 5 5 5 5 5 5 5 5 5 5 5 5 5 5 5 5 5 5 5 5 5 5 5 5 5 5 5 5 5 5 5 5 5 5 5 5 5 5 5 5 5 5 5 5 5 5 5 5 5 5 5 5 5 5 5 5 5 5 5 5 5 5 5 5 5 5 5 5 5 5 5 5 5 5 5 5 5 5 5 5 5 5 5 5 5 5 5 5 5 5 5 5 5 5 5 5 5 5 5 5 5 5 5 5 5 5 5 5 5 5 5 5 5 5 5 5 5 5 5 5 5 5 5 5 5 5 5 5 5 5 5 5 5 5 5 5 5 5 5 5 5 5 5 5 5 5 5 5 5 5 5 5 5 5 5 5 5 5 5 5 5 5 5 5 5 5 5 5 5 5 5 5 5 5 5 5 5 5 5 5 5 5 5 5 5 5 5 5 5 5 5 5 5 5 5 5 5 5 5 5 5 5 5 5 5 5 5 5 5 5 5 5 5 5 5 5 5 5 5 5 5 5 5 5 5 5 5 5 5 5 5 5 5 5 5 5 5 5 5 5 5 5 5 5 5 5 5 5 5 5 5 5 5 5 5 5 5 5 5 5 5 5 5 5 5 5 5 5 5 5 5 5 5 5 5 5 5 5 5 5 5 5 
CELL_DATA 328
SCALARS Marker double 1
LOOKUP_TABLE default
0 1 2 3 4 5 6 7 8 9 10 11 12 13 14 15 16 17 18 19 20 21 22 23 24 25 26 27 28 29 30 31 32 33 34 35 36 37 38 39 40 41 42 43 44 45 46 47 48 49 50 51 52 53 54 55 56 57 58 59 60 61 62 63 64 65 66 67 68 69 70 71 72 73 74 75 76 77 78 79 80 81 82 83 84 85 86 87 88 89 90 91 92 93 94 95 96 97 98 99 100 101 102 103 104 105 106 107 108 109 110 111 112 113 114 115 116 117 118 119 120 121 122 123 124 125 126 127 128 129 130 131 132 133 134 135 136 137 138 139 140 141 142 143 144 145 146 147 148 149 150 151 152 153 154 155 156 157 158 159 160 161 162 163 164 165 166 167 168 169 170 171 172 173 174 175 176 177 178 179 180 181 182 183 184 185 186 187 188 189 190 191 192 193 194 195 196 197 198 199 200 201 202 203 204 205 206 207 208 209 210 211 212 213 214 215 216 217 218 219 220 221 222 223 224 225 226 227 228 229 230 231 232 233 234 235 236 237 238 239 240 241 242 243 244 245 246 247 248 249 250 251 252 253 254 255 256 257 258 259 260 261 262 263 264 265 266 267 268 269 270 271 272 273 274 275 276 277 278 279 280 281 282 283 284 285 286 287 288 289 290 291 292 293 294 295 296 297 298 299 300 301 302 303 304 305 306 307 308 309 310 311 312 313 314 315 316 317 318 319 320 321 322 323 324 325 326 327 
SCALARS velocity double 1
LOOKUP_TABLE default
350.87480004538 224.28537946795 734.22380937664 623.33837669896 763.34188339273 361.85211674145 603.12071086253 734.12850181813 175.01865368395 222.37919057571 154.94836367803 175.04537778615 260.08347044946 200.64942625254 172.55897782062 286.34024496763 245.52047875526 222.68142391999 197.42225125025 210.49788121513 260.197261279 181.13197595492 262.22718972736 175.94629480131 186.41908480053 237.24718159315 174.67686970292 155.35034892408 253.12589876851 462.28687965458 168.32415395603 615.76982658781 987.94517364556 878.35175828496 360.95016917247 232.70196671824 512.46739866603 147.42572525683 197.11374187245 677.90482830989 175.54676744551 1171.6245436612 184.10409211013 243.55869302575 181.55890401115 294.24796710139 192.09942358255 274.29312810822 333.49876704716 630.30056601104 241.70415956405 606.84633084359 614.32723311838 234.0683494207 244.03856942953 712.77328373384 184.42839415285 257.30052622507 204.86444617232 468.80000563695 243.72477860592 202.74304879822 298.10747972604 670.3112830553 159.76184429234 306.74536773836 375.51841621528 277.40057239208 173.84200272905 259.14335394798 273.59430163402 800.68838070257 200.70962767707 190.23567145263 265.55323290852 479.40416168656 1123.8045766411 185.94486342046 627.43303973483 235.89913264953 158.73126404055 231.81167066234 629.63549838224 209.89393648429 343.07422476346 211.15257918997 805.53815350016 548.03577651785 209.55183424125 173.84815546162 643.67495257161 367.80519803157 209.6692188339 400.65921834202 466.06920201639 227.6580681749 180.15501828301 318.89134097721 941.84967422557 262.52198975384 680.67458088496 184.37687197085 179.28252718724 418.89829487087 553.42698095261 982.00172053255 704.74270127744 201.33446288232 211.1400667999 504.75744338968 351.79535134813 290.82371890024 180.98912052008 339.22977333404 193.59613908668 456.00456460372 183.80038751143 946.96170338589 399.16695156197 1311.6654424418 336.87572447138 218.67015903077 245.88422569259 399.25284684003 235.89660364296 413.57991320116 441.74283097076 452.75154070204 300.03548945343 292.78909637904 1330.6389904445 426.49345679099 357.489293876 226.67220822551 1279.4312465522 433.48556974136 1818.4689899223 1660.3420466989 445.85706088384 311.74060845265 235.61668119625 444.6184741325 419.6576495226 727.82312679008 212.6737361375 688.72198121526 232.8484833999 413.90922767868 954.04221797374 157.33072042794 213.3716630592 263.55755494787 527.55076653205 1014.4967328972 306.72175589734 451.68534481298 1843.3506255968 342.01042957133 1201.8980795206 163.21834079972 327.16416339961 141.73120724351 491.46604825194 595.37999515583 751.99765167468 473.63709989425 680.03768811391 193.18046949748 670.49223372491 1551.8875902364 358.31148667135 633.00089386609 560.73738300213 1193.7634082537 347.82803284725 1002.2235299159 953.90749972722 413.51344410872 360.35128809857 266.16697667828 1052.0065942064 735.71812772726 1481.7788734176 550.0467570475 902.52875429831 270.34170118831 980.46078448637 929.7104040141 1474.6383435589 1337.8423658911 768.40462264298 669.6730580441 817.92497372279 328.13808990129 273.95516991091 440.54407392812 314.86994601336 218.44638799387 813.48917233058 533.99653443295 724.34275837136 582.14497311506 489.23251841831 909.96450435678 203.64396293281 688.96728493539 940.40474529139 313.16134055266 1317.0037986195 414.60425090638 446.47916458851 578.92148281394 798.96908875823 436.66528257169 898.70380697013 581.62646175731 1473.3093778505 537.77045029697 433.79556465853 1272.6283955533 1170.8211205481 890.88718107115 1242.0922981578 255.63306627233 2098.9728285443 608.67390115148 773.41984560021 709.88859346873 989.67996348698 1374.9786778134 1053.0509245683 615.68078135155 1146.9249449925 2082.6082218759 961.67130358147 1318.3406780384 1506.6731191794 1052.7260635809 988.71919261446 1008.0004466252 1105.8339686246 1398.1037208618 1220.1164345709 1685.1243996744 1528.726169831 1999.8683117091 1479.4481124174 880.05599673902 1190.1598050768 1517.550564121 1270.768703285 1712.0455333538 1718.7041644028 1470.2078991634 1239.2528773429 1476.0346799594 1484.7091940357 1487.4505703798 1401.7317724212 1697.7322476175 1556.9345891626 1836.203164501 2069.6438519813 1763.8381766957 1265.8545293975 1634.2602452332 1953.0422264522 2695.8753568469 976.29794099572 1626.608705294 1944.6295128157 1662.75501389 1446.8600853617 1773.6579640158 1685.9963056488 2225.6097688888 1823.6108762631 1221.0255851671 704.04314599026 1153.0836643574 1477.873694909 1908.9710251217 1552.9557439453 1299.3418238547 1582.5014416058 1653.6466008921 1729.8744161459 1654.5194685625 1883.8777354536 1601.4662897918 2392.9867940654 2337.5499379759 1796.7524601376 2505.6098364037 1773.7703675795 2169.8952984707 2050.9397905874 2529.762936126 2551.8633275984 2549.5622626502 2441.1816123114 1882.3692615369 1828.5679669959 1847.1930553152 1404.6221363473 1753.4408720295 1985.367163224 1911.4528660492 1617.058221935 2715.9375721018 1487.2837632412 2658.4868708726 2136.599258743 1925.4838720154 1743.6670762073 1877.3253573746 2729.8856884549 1740.4878238462 1922.9390684021 1709.7877918918 1971.7904196183 1791.7845632809 1801.8591391992 1727.0224778534 1758.5461379466 2799.5344984669 2363.9525633284 2631.4499894764 
POINT_DATA 197
